# Blender 4.0.1
# www.blender.org
mtllib bench2.mtl
o Cube.002
v 1.864837 0.222742 0.331026
v 1.864837 0.141237 0.331026
v 1.889860 0.141237 0.306003
v 1.889860 0.222742 0.306003
v 1.864837 0.124936 0.331026
v 1.864837 0.043431 0.331026
v 1.889860 0.043431 0.306003
v 1.889860 0.124936 0.306003
v 1.864837 0.027130 0.331026
v 1.864837 -0.054376 0.331026
v 1.889860 -0.054376 0.306003
v 1.889860 0.027130 0.306003
v 1.864837 -0.070677 0.331026
v 1.864837 -0.152182 0.331026
v 1.889860 -0.152182 0.306003
v 1.889860 -0.070677 0.306003
v 1.864837 -0.168483 0.331026
v 1.864837 -0.249988 0.331026
v 1.889860 -0.249988 0.306003
v 1.889860 -0.168483 0.306003
v 2.495863 0.259495 -0.300000
v 2.414358 0.259495 -0.218495
v 2.414358 0.234472 -0.218495
v 2.495863 0.234472 -0.300000
v 2.406208 0.259495 -0.210344
v 2.324702 0.259495 -0.128839
v 2.324702 0.234472 -0.128839
v 2.406208 0.234472 -0.210344
v 2.316552 0.259495 -0.120688
v 2.235046 0.259495 -0.039183
v 2.235046 0.234472 -0.039183
v 2.316552 0.234472 -0.120688
v 2.226896 0.259495 -0.031033
v 2.145391 0.259495 0.050473
v 2.145391 0.234472 0.050473
v 2.226896 0.234472 -0.031033
v 2.137240 0.259495 0.058623
v 2.055735 0.259495 0.140128
v 2.055735 0.234472 0.140128
v 2.137240 0.234472 0.058623
v 2.047584 0.259495 0.148279
v 1.966079 0.259495 0.229784
v 1.966079 0.234472 0.229784
v 2.047584 0.234472 0.148279
v 1.957929 0.259495 0.237935
v 1.876423 0.259495 0.319440
v 1.876423 0.234472 0.319440
v 1.957929 0.234472 0.237935
v -1.866191 0.222742 0.331026
v -1.866191 0.141237 0.331026
v -1.891214 0.141237 0.306003
v -1.891214 0.222742 0.306003
v -1.866191 0.124936 0.331026
v -1.866191 0.043431 0.331026
v -1.891214 0.043431 0.306003
v -1.891214 0.124936 0.306003
v -1.866191 0.027130 0.331026
v -1.866191 -0.054376 0.331026
v -1.891214 -0.054376 0.306003
v -1.891214 0.027130 0.306003
v -1.866191 -0.070677 0.331026
v -1.866191 -0.152182 0.331026
v -1.891214 -0.152182 0.306003
v -1.891214 -0.070677 0.306003
v -1.866191 -0.168483 0.331026
v -1.866191 -0.249988 0.331026
v -1.891214 -0.249988 0.306003
v -1.891214 -0.168483 0.306003
v -2.497217 0.259495 -0.300000
v -2.415712 0.259495 -0.218495
v -2.415712 0.234472 -0.218495
v -2.497217 0.234472 -0.300000
v -0.421135 0.259495 -0.210344
v -0.421135 0.259495 -0.128839
v -0.421135 0.234472 -0.128839
v -0.421135 0.234472 -0.210344
v -0.421134 0.259495 -0.120688
v -0.421134 0.259495 -0.039183
v -0.421134 0.234472 -0.039183
v -0.421134 0.234472 -0.120688
v -0.421134 0.259495 -0.031033
v -0.421133 0.259495 0.050473
v -0.421133 0.234472 0.050473
v -0.421134 0.234472 -0.031033
v -0.421133 0.259495 0.058623
v -0.421132 0.259495 0.140128
v -0.421132 0.234472 0.140128
v -0.421133 0.234472 0.058623
v -0.421132 0.259495 0.148279
v -0.421131 0.259495 0.229784
v -0.421131 0.234472 0.229784
v -0.421132 0.234472 0.148279
v -1.959282 0.259495 0.237935
v -1.877777 0.259495 0.319440
v -1.877777 0.234472 0.319440
v -1.959282 0.234472 0.237935
v -1.761400 -0.237915 0.306513
v -1.761400 0.237915 0.306513
v -1.761400 -0.237915 -0.306513
v -1.761400 0.237915 -0.306513
v -1.643327 -0.237915 0.306513
v -1.643327 0.237915 0.306513
v -1.643327 -0.237915 -0.306513
v -1.643327 0.237915 -0.306513
v -1.074898 -0.237915 0.306513
v -0.911796 0.237915 0.222507
v -1.074898 -0.237915 -0.306513
v -0.911796 0.237915 -0.198891
v -0.273688 -0.237915 0.306513
v -0.436790 0.237915 0.222507
v -0.273688 -0.237915 -0.306513
v -0.436790 0.237915 -0.198891
v 0.293060 -0.237915 0.306513
v 0.293060 0.237915 0.306513
v 0.293060 -0.237915 -0.306513
v 0.293060 0.237915 -0.306513
v 0.411132 -0.237915 0.306513
v 0.411132 0.237915 0.306513
v 0.411132 -0.237915 -0.306513
v 0.411132 0.237915 -0.306513
v 0.977879 -0.237915 0.306513
v 0.977879 0.237915 0.306513
v 0.977879 -0.237915 -0.306513
v 0.977879 0.237915 -0.306513
v 1.095952 -0.237915 0.306513
v 1.095952 0.237915 0.306513
v 1.095952 -0.237915 -0.306513
v 1.095952 0.237915 -0.306513
v 1.662699 -0.237915 0.306513
v 1.662699 0.237915 0.306513
v 1.662699 -0.237915 -0.306513
v 1.662699 0.237915 -0.306513
v 1.780771 -0.237915 0.306513
v 1.780771 0.237915 0.306513
v 1.780771 -0.237915 -0.306513
v 1.780771 0.237915 -0.306513
v -0.923389 0.259495 -0.210344
v -0.923389 0.259495 -0.128839
v -0.923389 0.234472 -0.128839
v -0.923389 0.234472 -0.210344
v -0.923389 0.259495 -0.120688
v -0.923389 0.259495 -0.039183
v -0.923389 0.234472 -0.039183
v -0.923389 0.234472 -0.120688
v -0.923389 0.259495 -0.031033
v -0.923389 0.259495 0.050473
v -0.923389 0.234472 0.050473
v -0.923389 0.234472 -0.031033
v -0.923389 0.259495 0.058623
v -0.923389 0.259495 0.140128
v -0.923389 0.234472 0.140128
v -0.923389 0.234472 0.058623
v -0.923389 0.259495 0.148279
v -0.923390 0.259495 0.229784
v -0.923390 0.234472 0.229784
v -0.923389 0.234472 0.148279
v -2.407561 0.259495 -0.210344
v -2.326056 0.259495 -0.128839
v -2.326056 0.234472 -0.128839
v -2.407561 0.234472 -0.210344
v -2.317905 0.259495 -0.120688
v -2.236400 0.259495 -0.039183
v -2.236400 0.234472 -0.039183
v -2.317905 0.234472 -0.120688
v -2.228250 0.259495 -0.031033
v -2.146744 0.259495 0.050473
v -2.146744 0.234472 0.050473
v -2.228250 0.234472 -0.031033
v -2.138594 0.259495 0.058623
v -2.057089 0.259495 0.140128
v -2.057089 0.234472 0.140128
v -2.138594 0.234472 0.058623
v -2.048938 0.259495 0.148279
v -1.967433 0.259495 0.229784
v -1.967433 0.234472 0.229784
v -2.048938 0.234472 0.148279
v -1.074898 0.237915 0.306513
v -1.074898 0.237915 -0.306513
v -0.273688 0.237915 -0.306513
v -0.273688 0.237915 0.306513
v -0.911796 0.100780 0.222507
v -0.911796 0.100780 -0.198891
v -0.436790 0.100780 -0.198891
v -0.436790 0.100780 0.222507
v -0.429402 1.259495 -0.210344
v -0.429403 1.259495 -0.128839
v -0.429403 1.234472 -0.128839
v -0.429402 1.234472 -0.210344
v -0.429403 1.259495 -0.120688
v -0.429403 1.259495 -0.039183
v -0.429403 1.234472 -0.039183
v -0.429403 1.234472 -0.120688
v -0.429403 1.259495 -0.031033
v -0.429403 1.259495 0.050473
v -0.429403 1.234472 0.050473
v -0.429403 1.234472 -0.031033
v -0.429403 1.259495 0.058623
v -0.429403 1.259495 0.140128
v -0.429403 1.234472 0.140128
v -0.429403 1.234472 0.058623
v -0.429403 1.259495 0.148279
v -0.429403 1.259495 0.229784
v -0.429403 1.234472 0.229784
v -0.429403 1.234472 0.148279
v -0.918765 1.259495 -0.210344
v -0.918080 1.259495 -0.128839
v -0.918080 1.234472 -0.128839
v -0.918765 1.234472 -0.210344
v -0.918011 1.259495 -0.120688
v -0.917326 1.259495 -0.039183
v -0.917326 1.234472 -0.039183
v -0.918011 1.234472 -0.120688
v -0.917258 1.259495 -0.031033
v -0.916572 1.259495 0.050473
v -0.916572 1.234472 0.050473
v -0.917258 1.234472 -0.031033
v -0.916504 1.259495 0.058623
v -0.915819 1.259495 0.140128
v -0.915819 1.234472 0.140128
v -0.916504 1.234472 0.058623
v -0.915750 1.259495 0.148279
v -0.915065 1.259495 0.229784
v -0.915065 1.234472 0.229784
v -0.915750 1.234472 0.148279
vn -0.0000 -0.0000 1.0000
vn -0.0000 -1.0000 -0.0000
vn -0.0000 -0.0000 -1.0000
vn -0.0000 1.0000 -0.0000
vn 0.7071 -0.0000 0.7071
vn -0.7071 -0.0000 0.7071
vn -1.0000 -0.0000 -0.0000
vn 1.0000 -0.0000 -0.0000
vt 1.994042 0.932186
vt 1.880256 0.932186
vt 1.880256 -2.750919
vt 1.994041 -2.750919
vt 1.286384 -2.750919
vt 1.321318 -2.715986
vt 1.321318 2.492714
vt 1.286384 2.527648
vt 0.831242 2.527648
vt 0.717456 2.527648
vt 0.717456 -2.750919
vt 0.831241 -2.750919
vt 1.356251 2.492714
vt 1.321318 2.527648
vt 1.321318 -2.750919
vt 1.356252 -2.715986
vt 2.107827 0.932186
vt 1.994042 0.932186
vt 1.994042 -2.750919
vt 2.107827 -2.750919
vt 1.356252 -2.750919
vt 1.391185 -2.715986
vt 1.391185 2.492714
vt 1.356252 2.527648
vt 0.945027 2.527648
vt 0.831242 2.527648
vt 0.831242 -2.750919
vt 0.945027 -2.750919
vt 1.426119 2.492714
vt 1.391185 2.527648
vt 1.391185 -2.750919
vt 1.426119 -2.715986
vt 2.221613 0.932186
vt 2.107827 0.932186
vt 2.221613 -2.750919
vt 1.426119 -2.750919
vt 1.461053 -2.715986
vt 1.461052 2.492714
vt 1.426119 2.527648
vt 1.172599 2.527648
vt 1.058813 2.527648
vt 1.058813 -2.750919
vt 1.172598 -2.750919
vt 1.495986 2.492714
vt 1.461053 2.527648
vt 1.461053 -2.750919
vt 1.495986 -2.715986
vt 2.449184 0.932186
vt 2.335398 0.932186
vt 2.335398 -2.750919
vt 2.449183 -2.750919
vt 1.495987 -2.750919
vt 1.530920 -2.715986
vt 1.530920 2.492714
vt 1.495986 2.527648
vt 1.286384 2.527648
vt 1.286384 -2.750919
vt 1.565853 2.492714
vt 1.530920 2.527648
vt 1.530920 -2.750919
vt 1.565854 -2.715986
vt 2.221612 -2.750919
vt 1.565854 -2.750919
vt 1.600787 -2.715986
vt 1.600787 2.492714
vt 1.565854 2.527648
vt 1.058813 2.527648
vt 0.945027 2.527648
vt 0.945027 -2.750919
vt 1.058813 -2.750919
vt 1.635721 2.492714
vt 1.600787 2.527648
vt 1.600788 -2.750919
vt 1.635721 -2.715986
vt -1.120079 -2.637133
vt -1.006293 -2.750919
vt -1.006293 4.219669
vt -1.120078 4.105884
vt 1.670654 -2.750919
vt 1.670654 2.017112
vt 1.635721 2.017112
vt 1.635721 -2.750919
vt -0.892507 4.219669
vt -1.006293 4.105884
vt -1.006293 -2.637133
vt -0.892508 -2.750919
vt -0.857574 -2.750919
vt -0.857574 4.219669
vt -0.892507 4.219669
vt -0.892507 -2.750919
vt -0.743788 -2.637133
vt -0.630002 -2.750919
vt -0.630002 3.969341
vt -0.743788 3.855556
vt 1.705588 -2.750919
vt 1.705588 1.840103
vt 1.670655 1.840103
vt 1.670654 -2.750919
vt -0.743788 -2.750919
vt -0.743788 3.969341
vt -0.857573 3.855556
vt -0.857574 -2.637133
vt -0.595069 -2.750919
vt -0.595068 3.969341
vt -0.630002 3.969341
vt -0.630002 -2.750919
vt -0.595068 -2.637133
vt -0.481283 -2.750919
vt -0.481283 3.719013
vt -0.595068 3.605228
vt 1.740521 -2.750919
vt 1.740521 1.663095
vt 1.705588 1.663095
vt 1.705588 -2.750919
vt -0.367497 -2.750919
vt -0.367497 3.719013
vt -0.481282 3.605228
vt -0.481283 -2.637133
vt -0.332564 -2.750919
vt -0.332563 3.719013
vt -0.367497 3.719013
vt -0.367497 -2.750919
vt -0.332563 -2.637134
vt -0.218778 -2.750919
vt -0.218778 3.468685
vt -0.332563 3.354900
vt 1.775455 -2.750919
vt 1.775455 1.486086
vt 1.740522 1.486086
vt 1.740521 -2.750919
vt -0.104993 -2.750919
vt -0.104992 3.468685
vt -0.218778 3.354900
vt -0.218778 -2.637134
vt -0.070059 -2.750919
vt -0.070059 3.468685
vt -0.104992 3.468685
vt -0.104992 -2.750919
vt -0.070059 -2.637133
vt 0.043727 -2.750919
vt 0.043727 3.218358
vt -0.070058 3.104572
vt 1.810388 -2.750919
vt 1.810389 1.309078
vt 1.775455 1.309078
vt 1.775455 -2.750919
vt 0.157512 -2.750919
vt 0.157513 3.218358
vt 0.043727 3.104572
vt 0.043727 -2.637133
vt 0.192446 -2.750919
vt 0.192446 3.218358
vt 0.157513 3.218358
vt 0.157513 -2.750919
vt 0.306232 -2.637134
vt 0.420017 -2.750919
vt 0.420018 2.968030
vt 0.306232 2.854244
vt 1.845322 -2.750919
vt 1.845322 1.132069
vt 1.810389 1.132069
vt 1.810389 -2.750919
vt 0.306232 -2.750919
vt 0.306232 2.968030
vt 0.192447 2.854244
vt 0.192446 -2.637134
vt 0.454951 -2.750919
vt 0.454951 2.968030
vt 0.420018 2.968030
vt 0.420018 -2.750919
vt 0.568737 2.603917
vt 0.454951 2.717702
vt 0.454952 -2.750919
vt 0.568737 -2.637133
vt 1.880256 -2.750919
vt 1.880256 0.955061
vt 1.845322 0.955061
vt 1.845322 -2.750919
vt 0.568737 2.717702
vt 0.568737 -2.750919
vt 0.682523 -2.637133
vt 0.682522 2.603917
vt 0.717456 -2.750919
vt 0.717456 2.717702
vt 0.682523 2.717702
vt 0.682523 -2.750919
vt 2.335398 0.981589
vt 2.221613 0.981589
vt 2.449184 0.981589
vt 2.107827 0.981589
vt 2.107827 0.981589
vt 1.994042 0.981589
vt 1.994042 0.981589
vt 1.880256 0.981589
vt 1.845322 1.115978
vt 1.880256 1.115978
vt 1.775455 1.469995
vt 1.810389 1.469995
vt 1.810389 1.292986
vt 1.845322 1.292986
vt 1.740522 1.647003
vt 1.775455 1.647003
vt 1.670655 2.001020
vt 1.705588 2.001020
vt 1.635721 2.178028
vt 1.670654 2.178028
vt 1.705588 1.824011
vt 1.740521 1.824011
vt 2.484117 -2.750919
vt 2.484117 -2.590002
vt 2.449184 -2.590002
vt 2.449184 -2.750919
vt 2.484117 -2.429085
vt 2.449184 -2.429085
vt 2.449184 -2.590002
vt 2.484117 -2.590002
vt 2.484117 -2.268168
vt 2.449184 -2.268168
vt 2.484117 -2.107251
vt 2.449184 -2.107251
vt 2.484117 -1.946334
vt 2.449184 -1.946334
vt 2.484117 -1.785418
vt 2.449184 -1.785418
vt 2.498587 -1.624501
vt 2.498587 -1.510715
vt 2.449184 -1.510715
vt 2.449184 -1.624501
vt 2.498587 -1.283144
vt 2.498587 -1.169359
vt 2.449184 -1.169359
vt 2.449184 -1.283144
vt 2.498587 -1.396930
vt 2.449184 -1.396930
vt 2.498587 -1.055574
vt 2.449184 -1.055574
vt 2.498587 -1.283145
vt 2.449184 -1.283145
vt 2.484117 -1.624501
vt 0.375000 0.000000
vt 0.625000 0.000000
vt 0.625000 0.250000
vt 0.375000 0.250000
vt 0.625000 0.500000
vt 0.375000 0.500000
vt 0.625000 0.750000
vt 0.375000 0.750000
vt 0.625000 1.000000
vt 0.375000 1.000000
vt 0.125000 0.500000
vt 0.125000 0.750000
vt 0.875000 0.500000
vt 0.875000 0.750000
vt 0.675892 0.683485
vt 0.675892 0.566515
vt 0.824107 0.683485
vt 0.824108 0.566515
s 0
usemtl Wood
f 2/1/1 1/2/1 49/3/1 50/4/1
f 3/5/2 2/6/2 50/7/2 51/8/2
f 4/9/3 3/10/3 51/11/3 52/12/3
f 1/13/4 4/14/4 52/15/4 49/16/4
f 6/17/1 5/18/1 53/19/1 54/20/1
f 7/21/2 6/22/2 54/23/2 55/24/2
f 8/25/3 7/26/3 55/27/3 56/28/3
f 5/29/4 8/30/4 56/31/4 53/32/4
f 10/33/1 9/34/1 57/20/1 58/35/1
f 11/36/2 10/37/2 58/38/2 59/39/2
f 12/40/3 11/41/3 59/42/3 60/43/3
f 9/44/4 12/45/4 60/46/4 57/47/4
f 14/48/1 13/49/1 61/50/1 62/51/1
f 15/52/2 14/53/2 62/54/2 63/55/2
f 16/56/3 15/40/3 63/43/3 64/57/3
f 13/58/4 16/59/4 64/60/4 61/61/4
f 18/49/1 17/33/1 65/62/1 66/50/1
f 19/63/2 18/64/2 66/65/2 67/66/2
f 20/67/3 19/68/3 67/69/3 68/70/3
f 17/71/4 20/72/4 68/73/4 65/74/4
f 22/75/4 21/76/4 69/77/4 70/78/4
f 71/79/1 23/80/1 22/81/1 70/82/1
f 24/83/2 23/84/2 71/85/2 72/86/2
f 69/87/3 21/88/3 24/89/3 72/90/3
f 26/91/4 25/92/4 73/93/4 74/94/4
f 75/95/1 27/96/1 26/97/1 74/98/1
f 76/99/2 28/100/2 27/101/2 75/102/2
f 73/103/3 25/104/3 28/105/3 76/106/3
f 30/107/4 29/108/4 77/109/4 78/110/4
f 79/111/1 31/112/1 30/113/1 78/114/1
f 80/115/2 32/116/2 31/117/2 79/118/2
f 77/119/3 29/120/3 32/121/3 80/122/3
f 34/123/4 33/124/4 81/125/4 82/126/4
f 83/127/1 35/128/1 34/129/1 82/130/1
f 84/131/2 36/132/2 35/133/2 83/134/2
f 81/135/3 33/136/3 36/137/3 84/138/3
f 38/139/4 37/140/4 85/141/4 86/142/4
f 87/143/1 39/144/1 38/145/1 86/146/1
f 88/147/2 40/148/2 39/149/2 87/150/2
f 85/151/3 37/152/3 40/153/3 88/154/3
f 42/155/4 41/156/4 89/157/4 90/158/4
f 91/159/1 43/160/1 42/161/1 90/162/1
f 92/163/2 44/164/2 43/165/2 91/166/2
f 89/167/3 41/168/3 44/169/3 92/170/3
f 46/171/4 45/172/4 93/173/4 94/174/4
f 95/175/1 47/176/1 46/177/1 94/178/1
f 96/179/2 48/180/2 47/181/2 95/182/2
f 93/183/3 45/184/3 48/185/3 96/186/3
f 17/33/5 18/49/5 19/187/5 20/188/5
f 13/49/5 14/48/5 15/189/5 16/187/5
f 9/34/5 10/33/5 11/188/5 12/190/5
f 5/18/5 6/17/5 7/191/5 8/192/5
f 1/2/5 2/1/5 3/193/5 4/194/5
f 45/195/5 46/177/5 47/176/5 48/196/5
f 37/197/5 38/145/5 39/144/5 40/198/5
f 41/199/5 42/161/5 43/160/5 44/200/5
f 33/201/5 34/129/5 35/128/5 36/202/5
f 25/203/5 26/97/5 27/96/5 28/204/5
f 21/205/5 22/81/5 23/80/5 24/206/5
f 29/207/5 30/113/5 31/112/5 32/208/5
f 70/209/6 69/210/6 72/211/6 71/212/6
f 73/213/7 76/214/7 75/215/7 74/216/7
f 78/213/7 77/217/7 80/218/7 79/214/7
f 82/217/7 81/219/7 84/220/7 83/218/7
f 85/221/7 88/222/7 87/220/7 86/219/7
f 90/221/7 89/223/7 92/224/7 91/222/7
f 68/225/6 67/226/6 66/227/6 65/228/6
f 64/229/6 63/230/6 62/231/6 61/232/6
f 60/226/6 59/233/6 58/234/6 57/227/6
f 56/230/6 55/235/6 54/236/6 53/231/6
f 52/233/6 51/237/6 50/238/6 49/234/6
f 94/223/6 93/239/6 96/228/6 95/224/6
f 97/240/7 98/241/7 100/242/7 99/243/7
f 99/243/3 100/242/3 104/244/3 103/245/3
f 103/245/8 104/244/8 102/246/8 101/247/8
f 101/247/1 102/246/1 98/248/1 97/249/1
f 99/250/2 103/245/2 101/247/2 97/251/2
f 104/244/4 100/252/4 98/253/4 102/246/4
f 105/240/7 177/241/7 178/242/7 107/243/7
f 107/243/3 178/242/3 179/244/3 111/245/3
f 111/245/8 179/244/8 180/246/8 109/247/8
f 109/247/1 180/246/1 177/248/1 105/249/1
f 107/250/2 111/245/2 109/247/2 105/251/2
f 110/254/7 112/255/7 183/255/7 184/254/7
f 113/240/7 114/241/7 116/242/7 115/243/7
f 115/243/3 116/242/3 120/244/3 119/245/3
f 119/245/8 120/244/8 118/246/8 117/247/8
f 117/247/1 118/246/1 114/248/1 113/249/1
f 115/250/2 119/245/2 117/247/2 113/251/2
f 120/244/4 116/252/4 114/253/4 118/246/4
f 121/240/7 122/241/7 124/242/7 123/243/7
f 123/243/3 124/242/3 128/244/3 127/245/3
f 127/245/8 128/244/8 126/246/8 125/247/8
f 125/247/1 126/246/1 122/248/1 121/249/1
f 123/250/2 127/245/2 125/247/2 121/251/2
f 128/244/4 124/252/4 122/253/4 126/246/4
f 129/240/7 130/241/7 132/242/7 131/243/7
f 131/243/3 132/242/3 136/244/3 135/245/3
f 135/245/8 136/244/8 134/246/8 133/247/8
f 133/247/1 134/246/1 130/248/1 129/249/1
f 131/250/2 135/245/2 133/247/2 129/251/2
f 136/244/4 132/252/4 130/253/4 134/246/4
f 138/91/4 137/92/4 157/93/4 158/94/4
f 159/95/1 139/96/1 138/97/1 158/98/1
f 160/99/2 140/100/2 139/101/2 159/102/2
f 157/103/3 137/104/3 140/105/3 160/106/3
f 142/107/4 141/108/4 161/109/4 162/110/4
f 163/111/1 143/112/1 142/113/1 162/114/1
f 164/115/2 144/116/2 143/117/2 163/118/2
f 161/119/3 141/120/3 144/121/3 164/122/3
f 146/123/4 145/124/4 165/125/4 166/126/4
f 167/127/1 147/128/1 146/129/1 166/130/1
f 168/131/2 148/132/2 147/133/2 167/134/2
f 165/135/3 145/136/3 148/137/3 168/138/3
f 150/139/4 149/140/4 169/141/4 170/142/4
f 171/143/1 151/144/1 150/145/1 170/146/1
f 172/147/2 152/148/2 151/149/2 171/150/2
f 169/151/3 149/152/3 152/153/3 172/154/3
f 154/155/4 153/156/4 173/157/4 174/158/4
f 175/159/1 155/160/1 154/161/1 174/162/1
f 176/163/2 156/164/2 155/165/2 175/166/2
f 173/167/3 153/168/3 156/169/3 176/170/3
f 149/197/8 150/145/8 151/144/8 152/198/8
f 153/199/8 154/161/8 155/160/8 156/200/8
f 145/201/8 146/129/8 147/128/8 148/202/8
f 137/203/8 138/97/8 139/96/8 140/204/8
f 141/207/8 142/113/8 143/112/8 144/208/8
f 157/213/6 160/214/6 159/215/6 158/216/6
f 162/213/6 161/217/6 164/218/6 163/214/6
f 166/217/6 165/219/6 168/220/6 167/218/6
f 169/221/6 172/222/6 171/220/6 170/219/6
f 174/221/6 173/223/6 176/224/6 175/222/6
f 106/256/4 108/257/4 178/252/4 177/253/4
f 108/257/4 112/255/4 179/244/4 178/252/4
f 112/255/4 110/254/4 180/246/4 179/244/4
f 110/254/4 106/256/4 177/253/4 180/246/4
f 183/255/4 182/257/4 181/256/4 184/254/4
f 108/257/8 106/256/8 181/256/8 182/257/8
f 106/256/3 110/254/3 184/254/3 181/256/3
f 112/255/1 108/257/1 182/257/1 183/255/1
