# Blender 4.0.1
# www.blender.org
mtllib bench2.mtl
o Cube.002
v -0.143825 0.222742 0.331026
v -0.143825 0.141237 0.331026
v -0.168848 0.141237 0.306003
v -0.168848 0.222742 0.306003
v -0.143825 0.124936 0.331026
v -0.143825 0.043431 0.331026
v -0.168848 0.043431 0.306003
v -0.168848 0.124936 0.306003
v -0.143825 0.027130 0.331026
v -0.143825 -0.054376 0.331026
v -0.168848 -0.054376 0.306003
v -0.168848 0.027130 0.306003
v -0.143825 -0.070677 0.331026
v -0.143825 -0.152182 0.331026
v -0.168848 -0.152182 0.306003
v -0.168848 -0.070677 0.306003
v -0.143825 -0.168483 0.331026
v -0.143825 -0.249988 0.331026
v -0.168848 -0.249988 0.306003
v -0.168848 -0.168483 0.306003
v -0.774852 0.259495 -0.300000
v -0.693346 0.259495 -0.218495
v -0.693346 0.234472 -0.218495
v -0.774852 0.234472 -0.300000
v -0.685196 0.259495 -0.210344
v -0.603691 0.259495 -0.128839
v -0.603691 0.234472 -0.128839
v -0.685196 0.234472 -0.210344
v -0.595540 0.259495 -0.120688
v -0.514035 0.259495 -0.039183
v -0.514035 0.234472 -0.039183
v -0.595540 0.234472 -0.120688
v -0.505884 0.259495 -0.031033
v -0.424379 0.259495 0.050473
v -0.424379 0.234472 0.050473
v -0.505884 0.234472 -0.031033
v -0.416229 0.259495 0.058623
v -0.334723 0.259495 0.140128
v -0.334723 0.234472 0.140128
v -0.416229 0.234472 0.058623
v -0.326573 0.259495 0.148279
v -0.245067 0.259495 0.229784
v -0.245067 0.234472 0.229784
v -0.326573 0.234472 0.148279
v -0.236917 0.259495 0.237935
v -0.155412 0.259495 0.319440
v -0.155412 0.234472 0.319440
v -0.236917 0.234472 0.237935
v 0.564557 0.222742 0.331026
v 0.564557 0.141237 0.331026
v 0.564557 0.141237 0.306003
v 0.564557 0.222742 0.306003
v 0.564557 0.124936 0.331026
v 0.564557 0.043431 0.331026
v 0.564557 0.043431 0.306003
v 0.564557 0.124936 0.306003
v 0.564557 0.027130 0.331026
v 0.564557 -0.054376 0.331026
v 0.564557 -0.054376 0.306003
v 0.564557 0.027130 0.306003
v 0.564557 -0.070677 0.331026
v 0.564557 -0.152182 0.331026
v 0.564557 -0.152182 0.306003
v 0.564557 -0.070677 0.306003
v 0.564557 -0.168483 0.331026
v 0.564557 -0.249988 0.331026
v 0.564557 -0.249988 0.306003
v 0.564557 -0.168483 0.306003
v 0.564557 0.259495 -0.300000
v 0.564557 0.259495 -0.218495
v 0.564557 0.234472 -0.218495
v 0.564557 0.234472 -0.300000
v 0.564557 0.259495 -0.210344
v 0.564557 0.259495 -0.128839
v 0.564557 0.234472 -0.128839
v 0.564557 0.234472 -0.210344
v 0.564557 0.259495 -0.120688
v 0.564557 0.259495 -0.039183
v 0.564557 0.234472 -0.039183
v 0.564557 0.234472 -0.120688
v 0.564557 0.259495 -0.031033
v 0.564557 0.259495 0.050473
v 0.564557 0.234472 0.050473
v 0.564557 0.234472 -0.031033
v 0.564557 0.259495 0.058623
v 0.564557 0.259495 0.140128
v 0.564557 0.234472 0.140128
v 0.564557 0.234472 0.058623
v 0.564557 0.259495 0.148279
v 0.564557 0.259495 0.229784
v 0.564557 0.234472 0.229784
v 0.564557 0.234472 0.148279
v 0.564557 0.259495 0.237935
v 0.564557 0.259495 0.319440
v 0.564557 0.234472 0.319440
v 0.564557 0.234472 0.237935
v 0.517306 0.139070 0.299955
v 0.517306 0.228007 0.299955
v 0.517306 0.139070 -0.299955
v 0.517306 0.228007 -0.299955
v 0.549042 0.139070 0.299955
v 0.549042 0.228007 0.299955
v 0.549042 0.139070 -0.299955
v 0.549042 0.228007 -0.299955
v 0.517306 0.041240 0.299955
v 0.517306 0.130177 0.299955
v 0.517306 0.041240 -0.299955
v 0.517306 0.130177 -0.299955
v 0.549042 0.041240 0.299955
v 0.549042 0.130177 0.299955
v 0.549042 0.041240 -0.299955
v 0.549042 0.130177 -0.299955
v 0.517306 -0.056590 0.299955
v 0.517306 0.032346 0.299955
v 0.517306 -0.056590 -0.299955
v 0.517306 0.032346 -0.299955
v 0.549042 -0.056590 0.299955
v 0.549042 0.032346 0.299955
v 0.549042 -0.056590 -0.299955
v 0.549042 0.032346 -0.299955
v 0.517306 -0.154421 0.299955
v 0.517306 -0.065484 0.299955
v 0.517306 -0.154421 -0.299955
v 0.517306 -0.065484 -0.299955
v 0.549042 -0.154421 0.299955
v 0.549042 -0.065484 0.299955
v 0.549042 -0.154421 -0.299955
v 0.549042 -0.065484 -0.299955
v 0.517306 -0.252251 0.299955
v 0.517306 -0.163315 0.299955
v 0.517306 -0.252251 -0.299955
v 0.517306 -0.163315 -0.299955
v 0.549042 -0.252251 0.299955
v 0.549042 -0.163315 0.299955
v 0.549042 -0.252251 -0.299955
v 0.549042 -0.163315 -0.299955
vn -0.0000 -0.0000 1.0000
vn -0.0000 -1.0000 -0.0000
vn -0.0000 -0.0000 -1.0000
vn -0.0000 1.0000 -0.0000
vn -0.7071 -0.0000 0.7071
vn 1.0000 -0.0000 -0.0000
vn -1.0000 -0.0000 -0.0000
vt 1.815007 1.494681
vt 1.664678 1.494681
vt 1.664678 0.188132
vt 1.815007 0.188132
vt 1.017207 0.249317
vt 1.063360 0.203165
vt 1.063360 1.555867
vt 1.017207 1.555867
vt 1.213689 0.188132
vt 1.364019 0.188132
vt 1.364019 1.540834
vt 1.213690 1.540834
vt 1.606654 -1.290118
vt 1.652807 -1.243965
vt 1.652807 0.062585
vt 1.606654 0.062585
vt 0.427759 1.825406
vt 0.277430 1.825406
vt 0.277430 0.518856
vt 0.427759 0.518856
vt 1.652808 -1.243965
vt 1.698961 -1.290118
vt 1.698961 0.062585
vt 1.652808 0.062585
vt 1.063360 0.188132
vt 1.213689 1.540834
vt 1.063360 1.540834
vt 0.670395 0.353494
vt 0.716548 0.399646
vt 0.716548 1.706196
vt 0.670395 1.706196
vt 0.578089 1.825406
vt 0.427760 1.825406
vt 0.427760 0.518856
vt 0.578089 0.518856
vt 0.716548 0.399646
vt 0.762701 0.353494
vt 0.762701 1.706196
vt 0.716548 1.706196
vt 1.514349 0.188132
vt 1.514349 1.540834
vt 0.762701 0.353494
vt 0.808854 0.399646
vt 0.808854 1.706196
vt 0.762701 1.706196
vt 1.849290 0.016432
vt 1.698961 0.016432
vt 1.698960 -1.290118
vt 1.849290 -1.290118
vt 0.808854 0.399646
vt 0.855007 0.353494
vt 0.855007 1.706196
vt 0.808854 1.706196
vt 1.664678 0.188132
vt 1.664678 1.540834
vt 1.514349 1.540834
vt 0.855007 0.353494
vt 0.901160 0.399646
vt 0.901160 1.706196
vt 0.855007 1.706196
vt 1.965337 1.494681
vt 1.815008 1.494681
vt 1.815008 0.188132
vt 1.965337 0.188132
vt 0.901160 0.399646
vt 0.947313 0.353494
vt 0.947313 1.706196
vt 0.901160 1.706196
vt 1.456325 -1.290118
vt 1.456325 0.062585
vt 0.971054 0.353494
vt 1.017207 0.399646
vt 1.017207 1.706196
vt 0.971054 1.706196
vt -0.993771 1.180306
vt -1.144100 1.029976
vt -1.144100 -1.290118
vt -0.993771 -1.290118
vt -0.947618 1.029976
vt -0.993771 1.029976
vt -0.993771 -1.290118
vt -0.947618 -1.290118
vt -1.294430 -1.139788
vt -1.144100 -1.290118
vt -1.144100 1.180306
vt -1.294430 1.180306
vt -0.947618 -1.290118
vt -0.901465 -1.290118
vt -0.901465 1.180306
vt -0.947618 1.180306
vt -0.751135 1.014944
vt -0.901465 0.864614
vt -0.901465 -1.290118
vt -0.751135 -1.290118
vt -0.508500 -1.290118
vt -0.508500 0.864614
vt -0.554653 0.864614
vt -0.554653 -1.290118
vt -0.751135 1.014944
vt -0.751135 -1.139788
vt -0.600806 -1.290118
vt -0.600806 1.014944
vt -0.554653 -1.290118
vt -0.554653 1.014944
vt -0.600806 1.014944
vt -0.358170 0.849581
vt -0.508500 0.699251
vt -0.508500 -1.290118
vt -0.358170 -1.290118
vt -0.161688 -1.290118
vt -0.161688 0.699251
vt -0.207841 0.699251
vt -0.207841 -1.290118
vt -0.358170 0.849581
vt -0.358170 -1.139788
vt -0.207841 0.849581
vt -0.161688 0.849581
vt -0.161688 -1.290118
vt -0.115535 -1.290118
vt -0.115535 0.849581
vt 0.034795 0.684219
vt -0.115535 0.533889
vt -0.115535 -1.290118
vt 0.034794 -1.290118
vt 0.277430 -1.290118
vt 0.277430 0.533889
vt 0.231277 0.533889
vt 0.231277 -1.290118
vt 0.034795 0.684219
vt 0.034795 -1.139789
vt 0.185124 -1.290118
vt 0.185124 0.684219
vt 0.185124 0.684218
vt 0.185124 -1.290118
vt 0.231277 -1.290118
vt 0.231277 0.684218
vt 0.277430 0.368527
vt 0.277430 -1.290118
vt 0.427759 -1.290118
vt 0.624242 -1.290118
vt 0.624242 0.368527
vt 0.578089 0.368527
vt 0.578089 -1.290118
vt 0.427759 -1.139788
vt 0.578089 -1.290118
vt 0.624242 0.518856
vt 0.624242 -1.290118
vt 0.670395 -1.290118
vt 0.670395 0.518856
vt 0.820724 0.353494
vt 0.670395 0.203165
vt 0.670395 -1.290118
vt 0.820724 -1.290118
vt 1.063360 -1.290118
vt 1.063360 0.203164
vt 1.017207 0.203164
vt 1.017207 -1.290118
vt 0.820725 0.353494
vt 0.820724 -1.139788
vt 0.971054 -1.290118
vt 0.971054 0.353494
vt 0.971054 0.353494
vt 0.971054 -1.290118
vt 1.017207 -1.290118
vt 1.017207 0.353494
vt 1.213689 0.188132
vt 1.063360 0.037802
vt 1.063360 -1.290118
vt 1.213689 -1.290118
vt 1.456325 -1.290118
vt 1.456325 0.037802
vt 1.410172 0.037802
vt 1.410172 -1.290118
vt 1.213690 0.188132
vt 1.213689 -1.139788
vt 1.364019 -1.290118
vt 1.364019 0.188132
vt 1.364019 0.188132
vt 1.410172 -1.290118
vt 1.410172 0.188132
vt -0.947618 1.180306
vt -0.508500 1.014944
vt -0.554653 1.014944
vt -0.161688 0.849581
vt -0.207841 0.849581
vt 1.631927 1.540834
vt 1.631927 1.691163
vt 1.585774 1.691163
vt 1.585774 1.540834
vt 0.624242 0.518856
vt 0.578089 0.518856
vt 1.678079 1.540834
vt 1.678079 1.691163
vt 0.277430 0.533889
vt 0.277430 0.684219
vt 0.231277 0.684219
vt 0.231277 0.533889
vt 1.770385 1.540834
vt 1.770385 1.691164
vt 1.724232 1.691164
vt 1.724232 1.540834
vt 0.034795 0.998584
vt 0.034795 1.148914
vt -0.011358 1.148914
vt -0.011358 0.998584
vt 0.034795 1.148914
vt 0.034795 1.299243
vt -0.011358 1.299243
vt -0.011358 1.148914
vt -0.959999 1.180306
vt -0.959999 1.330635
vt -1.006152 1.330635
vt -1.006152 1.180306
vt 1.456325 0.188132
vt -0.011358 1.299243
vt 0.034795 1.299243
vt 0.034795 1.449572
vt -0.011358 1.449572
vt 0.578089 1.775667
vt 0.578089 1.625337
vt 0.624242 1.625337
vt 0.624242 1.775667
vt -0.959999 1.480964
vt -1.006152 1.480964
vt -0.011358 1.599902
vt -0.011358 1.449573
vt 0.034795 1.449573
vt 0.034795 1.599902
vt -1.006152 1.631294
vt -0.959999 1.631294
vt 1.017207 1.706196
vt 1.017207 1.555867
vt 1.063360 1.555867
vt 1.063360 1.706196
vt 1.678079 1.691163
vt 1.678079 1.540834
vt 1.724232 1.540834
vt 1.724232 1.691163
vt -0.011358 0.998584
vt -0.011358 0.848255
vt 0.034795 0.848255
vt 0.034795 0.998584
vt 0.624242 1.625337
vt 0.670395 1.625337
vt 0.670395 1.775667
vt 1.539621 1.691164
vt 1.539621 1.540834
vt 1.585774 1.540834
vt 1.585774 1.691164
vt 1.698960 0.166761
vt 1.698960 0.016432
vt 1.745113 0.016432
vt 1.745113 0.166761
vt -0.011358 1.750232
vt -0.011358 1.599902
vt 0.034795 1.599902
vt 0.034795 1.750232
vt 0.034795 0.684218
vt 0.198831 0.684218
vt 0.198831 1.790699
vt 0.034795 1.790699
vt -0.023739 0.684218
vt -0.023739 0.848254
vt -0.082273 0.848254
vt -0.082273 0.684218
vt -0.344464 1.956062
vt -0.508500 1.956062
vt -0.508500 0.849581
vt -0.344464 0.849581
vt 1.121894 1.540834
vt 1.121894 1.704870
vt 1.063360 1.704870
vt 1.063360 1.540834
vt 0.636623 1.625337
vt 0.578089 1.625337
vt 0.636623 0.518856
vt 0.257365 1.790699
vt 0.257365 0.684218
vt -0.344464 0.849581
vt -0.180428 0.849581
vt -0.180428 1.956062
vt -0.344464 1.956062
vt 1.180428 1.540834
vt 1.180428 1.704870
vt 1.121894 1.704870
vt 1.121894 1.540834
vt -0.016391 1.956062
vt -0.180428 1.956062
vt -0.016392 0.849581
vt 1.238962 1.540834
vt 1.238962 1.704870
vt 1.180428 1.704870
vt 1.180428 1.540834
vt -0.514859 2.121424
vt -0.573393 2.121424
vt -0.573393 1.014943
vt -0.514859 1.014943
vt 2.187907 1.294612
vt 2.129373 1.294612
vt 2.129373 0.188132
vt 2.187907 0.188132
vt 1.849290 -1.290118
vt 2.013326 -1.290118
vt 2.013326 -0.183637
vt 1.849290 -0.183637
vt 1.297495 1.540834
vt 1.297495 1.704870
vt 1.238961 1.704870
vt 1.238961 1.540834
vt -0.737429 2.121424
vt -0.901465 2.121424
vt -0.901465 1.014943
vt -0.737429 1.014943
vt 1.356030 1.540834
vt 1.356030 1.704870
vt 1.297496 1.704870
vt 1.297496 1.540834
vt 2.235896 -0.183637
vt 2.177362 -0.183637
vt 2.177362 -1.290118
vt 2.235896 -1.290118
vt 2.246441 1.294612
vt 2.187907 1.294612
vt 2.187907 0.188132
vt 2.246441 0.188132
vt -0.737429 1.014943
vt -0.573393 1.014943
vt -0.573393 2.121424
vt -0.737429 2.121424
vt 1.422553 1.540834
vt 1.422553 1.704870
vt 1.364019 1.704870
vt 1.364019 1.540834
vt 2.129373 1.294612
vt 1.965337 1.294612
vt 1.965337 0.188132
vt 1.481087 1.540834
vt 1.481087 1.704870
vt 1.422553 1.540834
vt -1.071860 2.286787
vt -1.130394 2.286787
vt -1.130394 1.180306
vt -1.071860 1.180306
vt -1.013326 2.286787
vt -1.013326 1.180306
vt 2.177362 -1.290118
vt 1.539621 1.540834
vt 1.539621 1.704870
vt 1.481087 1.704870
vt 1.481087 1.540834
vt -1.294430 2.286787
vt -1.294430 1.180306
vt -0.023739 0.848255
vt -0.023739 0.684219
vt -0.901465 2.286787
vt -0.959999 2.286787
vt -0.959999 1.180306
vt -0.901465 1.180306
vt 2.294430 -0.183637
vt 2.294430 -1.290118
s 0
usemtl Material.002
f 1/1/1 2/2/1 50/3/1 49/4/1
f 2/5/2 3/6/2 51/7/2 50/8/2
f 3/9/3 4/10/3 52/11/3 51/12/3
f 4/13/4 1/14/4 49/15/4 52/16/4
f 5/17/1 6/18/1 54/19/1 53/20/1
f 6/21/2 7/22/2 55/23/2 54/24/2
f 7/25/3 8/9/3 56/26/3 55/27/3
f 8/28/4 5/29/4 53/30/4 56/31/4
f 9/32/1 10/33/1 58/34/1 57/35/1
f 10/36/2 11/37/2 59/38/2 58/39/2
f 11/10/3 12/40/3 60/41/3 59/11/3
f 12/42/4 9/43/4 57/44/4 60/45/4
f 13/46/1 14/47/1 62/48/1 61/49/1
f 14/50/2 15/51/2 63/52/2 62/53/2
f 15/40/3 16/54/3 64/55/3 63/56/3
f 16/57/4 13/58/4 61/59/4 64/60/4
f 17/61/1 18/62/1 66/63/1 65/64/1
f 18/65/2 19/66/2 67/67/2 66/68/2
f 19/69/3 20/13/3 68/16/3 67/70/3
f 20/71/4 17/72/4 65/73/4 68/74/4
f 22/79/5 21/181/5 24/75/5 23/80/5
f 25/182/5 28/183/5 27/97/5 26/96/5
f 30/111/5 29/184/5 32/185/5 31/112/5
f 34/186/5 33/187/5 36/188/5 35/189/5
f 37/190/5 40/191/5 39/142/5 38/141/5
f 42/192/5 41/193/5 44/187/5 43/186/5
f 20/194/5 19/195/5 18/196/5 17/197/5
f 16/198/5 15/199/5 14/200/5 13/201/5
f 12/202/5 11/203/5 10/204/5 9/205/5
f 8/206/5 7/207/5 6/208/5 5/209/5
f 4/210/5 3/211/5 2/212/5 1/213/5
f 46/171/5 45/214/5 48/180/5 47/172/5
f 66/215/6 67/216/6 68/217/6 65/218/6
f 61/219/6 62/220/6 63/221/6 64/222/6
f 54/212/6 55/211/6 56/223/6 53/224/6
f 49/225/6 50/226/6 51/227/6 52/228/6
f 57/229/6 58/224/6 59/223/6 60/230/6
f 85/231/6 86/232/6 87/233/6 88/234/6
f 89/235/6 90/236/6 91/237/6 92/238/6
f 93/239/6 94/240/6 95/241/6 96/242/6
f 69/222/6 70/243/6 71/244/6 72/245/6
f 73/246/6 74/247/6 75/248/6 76/249/6
f 77/250/6 78/251/6 79/252/6 80/253/6
f 81/254/6 82/255/6 83/256/6 84/257/6
f 97/258/7 98/259/7 100/260/7 99/261/7
f 99/262/3 100/263/3 104/264/3 103/265/3
f 103/266/6 104/267/6 102/268/6 101/269/6
f 101/270/1 102/271/1 98/272/1 97/273/1
f 99/274/2 103/275/2 101/191/2 97/276/2
f 104/277/4 100/260/4 98/259/4 102/278/4
f 105/279/7 106/280/7 108/281/7 107/282/7
f 107/283/3 108/284/3 112/285/3 111/286/3
f 111/287/6 112/288/6 110/280/6 109/289/6
f 109/290/1 110/291/1 106/292/1 105/293/1
f 107/294/2 111/295/2 109/296/2 105/297/2
f 112/298/4 108/299/4 106/300/4 110/301/4
f 113/302/7 114/303/7 116/304/7 115/305/7
f 115/306/3 116/307/3 120/308/3 119/309/3
f 119/310/6 120/311/6 118/312/6 117/313/6
f 117/314/1 118/315/1 114/316/1 113/317/1
f 115/318/2 119/319/2 117/320/2 113/321/2
f 120/322/4 116/323/4 114/324/4 118/325/4
f 121/326/7 122/327/7 124/328/7 123/329/7
f 123/330/3 124/331/3 128/332/3 127/333/3
f 127/334/6 128/335/6 126/336/6 125/300/6
f 125/337/1 126/338/1 122/331/1 121/339/1
f 123/340/2 127/341/2 125/342/2 121/343/2
f 128/344/4 124/340/4 122/343/4 126/345/4
f 129/303/7 130/346/7 132/319/7 131/304/7
f 131/347/3 132/348/3 136/349/3 135/350/3
f 135/341/6 136/351/6 134/352/6 133/342/6
f 133/121/1 134/241/1 130/353/1 129/354/1
f 131/355/2 135/356/2 133/357/2 129/358/2
f 136/359/4 132/318/4 130/321/4 134/360/4
usemtl Material.001
f 21/75/4 22/76/4 70/77/4 69/78/4
f 22/79/1 23/80/1 71/81/1 70/82/1
f 23/83/2 24/84/2 72/85/2 71/86/2
f 24/87/3 21/88/3 69/89/3 72/90/3
f 25/91/4 26/92/4 74/93/4 73/94/4
f 74/95/1 26/96/1 27/97/1 75/98/1
f 75/99/2 27/100/2 28/101/2 76/102/2
f 28/101/3 25/103/3 73/104/3 76/105/3
f 29/106/4 30/107/4 78/108/4 77/109/4
f 78/110/1 30/111/1 31/112/1 79/113/1
f 79/114/2 31/115/2 32/113/2 80/116/2
f 80/117/3 32/118/3 29/119/3 77/120/3
f 33/121/4 34/122/4 82/123/4 81/124/4
f 82/125/1 34/126/1 35/127/1 83/128/1
f 83/129/2 35/130/2 36/131/2 84/132/2
f 84/133/3 36/134/3 33/135/3 81/136/3
f 37/20/4 38/137/4 86/138/4 85/139/4
f 86/140/1 38/141/1 39/142/1 87/143/1
f 87/20/2 39/144/2 40/145/2 88/35/2
f 88/146/3 40/147/3 37/148/3 85/149/3
f 41/150/4 42/151/4 90/152/4 89/153/4
f 90/154/1 42/155/1 43/156/1 91/157/1
f 91/158/2 43/159/2 44/160/2 92/161/2
f 92/162/3 44/163/3 41/164/3 89/165/3
f 45/166/4 46/167/4 94/168/4 93/169/4
f 94/170/1 46/171/1 47/172/1 95/173/1
f 95/174/2 47/175/2 48/176/2 96/177/2
f 96/178/3 48/176/3 45/179/3 93/180/3
