# Blender 4.0.1
# www.blender.org
mtllib bomb.mtl
o Cube
v 0.051353 0.028363 -0.030426
v 0.105463 -0.028363 -0.219757
v 0.051353 0.028363 0.203229
v 0.105463 -0.028363 0.219757
v -0.051353 0.028363 -0.030426
v -0.105463 -0.028363 -0.219757
v -0.051353 0.028363 0.203229
v -0.105463 -0.028363 0.219757
v 0.105463 0.028363 0.219757
v -0.105463 0.028363 0.219757
v 0.105463 0.028363 -0.219757
v -0.105463 0.028363 -0.219757
v 0.045937 0.036585 0.197813
v -0.045937 0.036585 0.197813
v 0.045937 0.036585 -0.025010
v -0.045937 0.036585 -0.025010
v 0.051353 0.039069 0.203229
v -0.051353 0.039069 0.203229
v 0.051353 0.039069 -0.030426
v -0.051353 0.039069 -0.030426
vn -1.0000 -0.0000 -0.0000
vn -0.0000 -0.0000 1.0000
vn -0.0000 -1.0000 -0.0000
vn 1.0000 -0.0000 -0.0000
vn -0.0000 -0.0000 -1.0000
vn -0.0000 1.0000 -0.0000
vn -0.0000 0.9090 -0.4169
vn -0.4169 0.9090 -0.0000
vn 0.4169 0.9090 -0.0000
vn -0.0000 0.9090 0.4169
vt 0.810866 0.530779
vt 0.810866 0.719221
vt 0.375000 0.750000
vt 0.625000 0.750000
vt 0.625000 1.000000
vt 0.375000 1.000000
vt 0.375000 0.000000
vt 0.625000 0.000000
vt 0.625000 0.250000
vt 0.375000 0.250000
vt 0.125000 0.500000
vt 0.375000 0.500000
vt 0.125000 0.750000
vt 0.625000 0.500000
vt 0.689134 0.719221
vt 0.875000 0.750000
vt 0.689134 0.530779
vt 0.875000 0.500000
vt 0.695554 0.535147
vt 0.804446 0.535147
vt 0.804446 0.714853
vt 0.695554 0.714853
s 0
usemtl Material
f 4/3/2 9/4/2 10/5/2 8/6/2
f 8/7/1 10/8/1 12/9/1 6/10/1
f 6/11/3 2/12/3 4/3/3 8/13/3
f 2/12/4 11/14/4 9/4/4 4/3/4
f 6/10/5 12/9/5 11/14/5 2/12/5
f 3/15/6 7/2/6 10/16/6 9/4/6
f 1/17/6 3/15/6 9/4/6 11/14/6
f 7/2/6 5/1/6 12/18/6 10/16/6
f 5/1/6 1/17/6 11/14/6 12/18/6
usemtl Material.001
f 15/19/6 16/20/6 14/21/6 13/22/6
usemtl Material.002
f 5/1/1 7/2/1 18/2/1 20/1/1
f 7/2/2 3/15/2 17/15/2 18/2/2
f 1/17/5 5/1/5 20/1/5 19/17/5
f 3/15/4 1/17/4 19/17/4 17/15/4
f 13/22/7 14/21/7 18/2/7 17/15/7
f 15/19/8 13/22/8 17/15/8 19/17/8
f 14/21/9 16/20/9 20/1/9 18/2/9
f 16/20/10 15/19/10 19/17/10 20/1/10
