# Blender 4.0.1
# www.blender.org
mtllib bottle.mtl
o Cylinder
v 0.000000 -0.049160 -0.049160
v 0.000000 0.141899 -0.049160
v 0.026578 -0.049160 -0.041356
v 0.026578 0.141899 -0.041356
v 0.044718 -0.049160 -0.020422
v 0.044718 0.141899 -0.020422
v 0.048660 -0.049160 0.006996
v 0.048660 0.141899 0.006996
v 0.037153 -0.049160 0.032193
v 0.037153 0.141899 0.032193
v 0.013850 -0.049160 0.047169
v 0.013850 0.141899 0.047169
v -0.013850 -0.049160 0.047169
v -0.013850 0.141899 0.047169
v -0.037153 -0.049160 0.032193
v -0.037153 0.141899 0.032193
v -0.048660 -0.049160 0.006996
v -0.048660 0.141899 0.006996
v -0.044718 -0.049160 -0.020422
v -0.044718 0.141899 -0.020422
v -0.026578 -0.049160 -0.041356
v -0.026578 0.141899 -0.041356
v 0.000000 0.166411 -0.031352
v 0.016950 0.166411 -0.026375
v 0.028519 0.166411 -0.013024
v 0.031033 0.166411 0.004462
v 0.023695 0.166411 0.020531
v 0.008833 0.166411 0.030082
v -0.008833 0.166411 0.030082
v -0.023695 0.166411 0.020531
v -0.031033 0.166411 0.004462
v -0.028519 0.166411 -0.013024
v -0.016950 0.166411 -0.026375
v 0.000000 0.183953 -0.020398
v 0.011028 0.183953 -0.017160
v 0.018555 0.183953 -0.008474
v 0.020190 0.183953 0.002903
v 0.015416 0.183953 0.013358
v 0.005747 0.183953 0.019572
v -0.005747 0.183953 0.019572
v -0.015416 0.183953 0.013358
v -0.020190 0.183953 0.002903
v -0.018554 0.183953 -0.008474
v -0.011028 0.183953 -0.017160
v 0.000000 0.247127 -0.011720
v 0.006336 0.247127 -0.009859
v 0.010661 0.247127 -0.004869
v 0.011601 0.247127 0.001668
v 0.008857 0.247127 0.007675
v 0.003302 0.247127 0.011245
v -0.003302 0.247127 0.011245
v -0.008857 0.247127 0.007675
v -0.011601 0.247127 0.001668
v -0.010661 0.247127 -0.004869
v -0.006336 0.247127 -0.009859
v 0.011028 0.247127 -0.017160
v 0.000000 0.247127 -0.020398
v 0.018555 0.247127 -0.008474
v 0.020190 0.247127 0.002903
v 0.015416 0.247127 0.013358
v 0.005747 0.247127 0.019572
v -0.005747 0.247127 0.019572
v -0.015416 0.247127 0.013358
v -0.020190 0.247127 0.002903
v -0.018554 0.247127 -0.008474
v -0.011028 0.247127 -0.017160
v 0.000000 0.189452 -0.011720
v 0.006336 0.189452 -0.009859
v 0.010661 0.189452 -0.004869
v 0.011601 0.189452 0.001668
v 0.008857 0.189452 0.007675
v 0.003302 0.189452 0.011245
v -0.003302 0.189452 0.011245
v -0.008857 0.189452 0.007675
v -0.011601 0.189452 0.001668
v -0.010661 0.189452 -0.004869
v -0.006336 0.189452 -0.009859
vn -0.0000 -0.6489 -0.7609
vn -0.0000 0.2938 -0.9559
vn 0.5168 0.2938 -0.8041
vn 0.4114 -0.6489 -0.6401
vn 0.8695 0.2938 -0.3971
vn 0.6922 -0.6489 -0.3161
vn 0.9461 0.2938 0.1360
vn 0.7532 -0.6489 0.1083
vn 0.7224 0.2938 0.6260
vn 0.5751 -0.6489 0.4983
vn 0.2693 0.2938 0.9171
vn 0.2144 -0.6489 0.7301
vn -0.2693 0.2938 0.9171
vn -0.2144 -0.6489 0.7301
vn -0.7224 0.2938 0.6260
vn -0.5751 -0.6489 0.4983
vn -0.9461 0.2938 0.1360
vn -0.7532 -0.6489 0.1083
vn -0.8695 0.2938 -0.3971
vn -0.6922 -0.6489 -0.3161
vn -0.6251 0.5620 0.5417
vn -0.8187 0.5620 0.1177
vn -0.5168 0.2938 -0.8041
vn -0.4114 -0.6489 -0.6401
vn 0.4472 0.5620 -0.6958
vn -0.0000 0.5620 -0.8271
vn -0.0000 0.2896 -0.9572
vn 0.5175 0.2896 -0.8052
vn -0.2330 0.5620 0.7936
vn 0.2330 0.5620 0.7936
vn 0.6251 0.5620 0.5417
vn 0.8187 0.5620 0.1177
vn 0.7524 0.5620 -0.3436
vn -0.4472 0.5620 -0.6958
vn -0.7524 0.5620 -0.3436
vn 0.9474 0.2896 0.1362
vn 0.8707 0.2896 -0.3976
vn 0.6922 0.6488 -0.3161
vn 0.7532 0.6489 0.1083
vn -0.7234 0.2896 0.6268
vn -0.9474 0.2896 0.1362
vn 0.7234 0.2896 0.6268
vn 0.2697 0.2896 0.9184
vn -0.8707 0.2896 -0.3976
vn -0.2697 0.2896 0.9184
vn -0.5175 0.2896 -0.8052
vn 0.4763 0.7764 -0.4128
vn 0.1776 0.7764 -0.6048
vn 0.2144 0.6489 -0.7301
vn 0.5751 0.6489 -0.4983
vn -0.6922 0.6489 -0.3161
vn -0.4114 0.6489 -0.6401
vn -0.2144 0.6489 0.7301
vn -0.5751 0.6489 0.4983
vn 0.5751 0.6489 0.4983
vn -0.0000 0.6489 -0.7609
vn 0.4114 0.6488 -0.6401
vn -0.7532 0.6489 0.1083
vn 0.2144 0.6489 0.7301
vn -0.0000 0.7763 0.6303
vn -0.3408 0.7764 0.5302
vn -0.5733 0.7764 0.2618
vn -0.6239 0.7763 -0.0897
vn -0.4764 0.7763 -0.4128
vn -0.1776 0.7764 -0.6048
vn 0.6239 0.7763 -0.0897
vn 0.5733 0.7764 0.2618
vn 0.3408 0.7764 0.5302
vn -0.4114 0.6489 0.6401
vn -0.0000 0.6489 0.7609
vn 0.4114 0.6489 0.6401
vn 0.6922 0.6489 0.3161
vn 0.7532 0.6489 -0.1083
vn -0.2144 0.6489 -0.7301
vn -0.5751 0.6489 -0.4983
vn -0.7532 0.6489 -0.1083
vn -0.6922 0.6489 0.3161
vt 1.000000 0.500000
vt 1.000000 1.000000
vt 0.909091 1.000000
vt 0.909091 0.500000
vt 0.818182 1.000000
vt 0.818182 0.500000
vt 0.727273 1.000000
vt 0.727273 0.500000
vt 0.636364 1.000000
vt 0.636364 0.500000
vt 0.545454 1.000000
vt 0.545454 0.500000
vt 0.454545 1.000000
vt 0.454545 0.500000
vt 0.363636 1.000000
vt 0.363636 0.500000
vt 0.272727 1.000000
vt 0.272727 0.500000
vt 0.181818 1.000000
vt 0.181818 0.500000
vt 0.090909 1.000000
vt 0.090909 0.500000
vt -0.000000 1.000000
vt -0.000000 0.500000
vt 0.750000 0.490000
vt 0.879754 0.451901
vt 0.968312 0.349700
vt 0.987557 0.215844
vt 0.931380 0.092833
vt 0.817616 0.019722
vt 0.682384 0.019722
vt 0.568620 0.092833
vt 0.512443 0.215844
vt 0.531688 0.349700
vt 0.620246 0.451901
vt 0.145784 0.159697
vt 0.211150 0.117689
vt 0.250000 0.387897
vt 0.324553 0.366006
vt 0.379754 0.451901
vt 0.250000 0.490000
vt 0.375436 0.307285
vt 0.468312 0.349700
vt 0.386493 0.230375
vt 0.487557 0.215844
vt 0.354216 0.159697
vt 0.431380 0.092833
vt 0.288850 0.117689
vt 0.317616 0.019722
vt 0.182384 0.019722
vt 0.068620 0.092833
vt 0.113507 0.230375
vt 0.012443 0.215844
vt 0.124564 0.307285
vt 0.031688 0.349700
vt 0.175447 0.366006
vt 0.120246 0.451901
s 1
f 1/1/1 2/2/2 4/3/3 3/4/4
f 3/4/4 4/3/3 6/5/5 5/6/6
f 5/6/6 6/5/5 8/7/7 7/8/8
f 7/8/8 8/7/7 10/9/9 9/10/10
f 9/10/10 10/9/9 12/11/11 11/12/12
f 11/12/12 12/11/11 14/13/13 13/14/14
f 13/14/14 14/13/13 16/15/15 15/16/16
f 15/16/16 16/15/15 18/17/17 17/18/18
f 17/18/18 18/17/17 20/19/19 19/20/20
f 18/17/17 16/15/15 30/15/21 31/17/22
f 19/20/20 20/19/19 22/21/23 21/22/24
f 21/22/24 22/21/23 2/23/2 1/24/1
f 1/25/1 3/26/4 5/27/6 7/28/8 9/29/10 11/30/12 13/31/14 15/32/16 17/33/18 19/34/20 21/35/24
f 24/3/25 23/2/26 34/2/27 35/3/28
f 16/15/15 14/13/13 29/13/29 30/15/21
f 14/13/13 12/11/11 28/11/30 29/13/29
f 12/11/11 10/9/9 27/9/31 28/11/30
f 10/9/9 8/7/7 26/7/32 27/9/31
f 4/3/3 2/2/2 23/2/26 24/3/25
f 8/7/7 6/5/5 25/5/33 26/7/32
f 2/23/2 22/21/23 33/21/34 23/23/26
f 6/5/5 4/3/3 24/3/25 25/5/33
f 22/21/23 20/19/19 32/19/35 33/21/34
f 20/19/19 18/17/17 31/17/22 32/19/35
f 37/7/36 36/5/37 58/5/38 59/7/39
f 31/17/22 30/15/21 41/15/40 42/17/41
f 28/11/30 27/9/31 38/9/42 39/11/43
f 25/5/33 24/3/25 35/3/28 36/5/37
f 32/19/35 31/17/22 42/17/41 43/19/44
f 29/13/29 28/11/30 39/11/43 40/13/45
f 26/7/32 25/5/33 36/5/37 37/7/36
f 33/21/34 32/19/35 43/19/44 44/21/46
f 30/15/21 29/13/29 40/13/45 41/15/40
f 27/9/31 26/7/32 37/7/36 38/9/42
f 23/23/26 33/21/34 44/21/46 34/23/27
f 52/36/47 51/37/48 73/37/49 74/36/50
f 44/21/46 43/19/44 65/19/51 66/21/52
f 41/15/40 40/13/45 62/13/53 63/15/54
f 38/9/42 37/7/36 59/7/39 60/9/55
f 34/23/27 44/21/46 66/21/52 57/23/56
f 35/3/28 34/2/27 57/2/56 56/3/57
f 42/17/41 41/15/40 63/15/54 64/17/58
f 39/11/43 38/9/42 60/9/55 61/11/59
f 36/5/37 35/3/28 56/3/57 58/5/38
f 43/19/44 42/17/41 64/17/58 65/19/51
f 40/13/45 39/11/43 61/11/59 62/13/53
f 45/38/60 46/39/61 56/40/57 57/41/56
f 46/39/61 47/42/62 58/43/38 56/40/57
f 47/42/62 48/44/63 59/45/39 58/43/38
f 48/44/63 49/46/64 60/47/55 59/45/39
f 49/46/64 50/48/65 61/49/59 60/47/55
f 50/48/65 51/37/48 62/50/53 61/49/59
f 51/37/48 52/36/47 63/51/54 62/50/53
f 52/36/47 53/52/66 64/53/58 63/51/54
f 53/52/66 54/54/67 65/55/51 64/53/58
f 54/54/67 55/56/68 66/57/52 65/55/51
f 55/56/68 45/38/60 57/41/56 66/57/52
f 68/39/69 67/38/70 77/56/71 76/54/72 75/52/73 74/36/50 73/37/49 72/48/74 71/46/75 70/44/76 69/42/77
f 49/46/64 48/44/63 70/44/76 71/46/75
f 45/38/60 55/56/68 77/56/71 67/38/70
f 46/39/61 45/38/60 67/38/70 68/39/69
f 53/52/66 52/36/47 74/36/50 75/52/73
f 50/48/65 49/46/64 71/46/75 72/48/74
f 47/42/62 46/39/61 68/39/69 69/42/77
f 54/54/67 53/52/66 75/52/73 76/54/72
f 51/37/48 50/48/65 72/48/74 73/37/49
f 48/44/63 47/42/62 69/42/77 70/44/76
f 55/56/68 54/54/67 76/54/72 77/56/71
