# Blender 4.0.1
# www.blender.org
mtllib cookie_box_top.mtl
o Cube.001
v -0.187110 0.215307 0.187110
v -0.192813 0.244103 0.192813
v -0.187110 0.215307 -0.187110
v -0.192813 0.244103 -0.192813
v 0.187110 0.215307 0.187110
v 0.192813 0.244103 0.192813
v 0.187110 0.215307 -0.187110
v 0.192813 0.244103 -0.192813
v -0.192813 0.215307 -0.192813
v -0.192813 0.215307 0.192813
v 0.192813 0.215307 -0.192813
v 0.192813 0.215307 0.192813
v -0.187110 0.241748 -0.187110
v -0.187110 0.241748 0.187110
v 0.187110 0.241748 -0.187110
v 0.187110 0.241748 0.187110
vn -1.0000 -0.0000 -0.0000
vn -0.0000 -0.0000 -1.0000
vn 1.0000 -0.0000 -0.0000
vn -0.0000 -0.0000 1.0000
vn -0.0000 1.0000 -0.0000
vn -0.0000 -1.0000 -0.0000
vt 0.375000 0.000000
vt 0.625000 0.000000
vt 0.625000 0.250000
vt 0.375000 0.250000
vt 0.625000 0.500000
vt 0.375000 0.500000
vt 0.625000 0.750000
vt 0.375000 0.750000
vt 0.625000 1.000000
vt 0.375000 1.000000
vt 0.128697 0.746303
vt 0.128697 0.503697
vt 0.875000 0.500000
vt 0.875000 0.750000
vt 0.125000 0.750000
vt 0.125000 0.500000
vt 0.371303 0.503697
vt 0.371303 0.746303
s 0
usemtl Material.004
f 10/1/1 2/2/1 4/3/1 9/4/1
f 9/4/2 4/3/2 8/5/2 11/6/2
f 11/6/3 8/5/3 6/7/3 12/8/3
f 12/8/4 6/7/4 2/9/4 10/10/4
f 8/5/5 4/13/5 2/14/5 6/7/5
f 3/12/6 1/11/6 10/15/6 9/16/6
f 7/17/6 3/12/6 9/16/6 11/6/6
f 5/18/6 7/17/6 11/6/6 12/8/6
f 1/11/6 5/18/6 12/8/6 10/15/6
usemtl Material.006
f 1/11/3 3/12/3 13/12/3 14/11/3
f 13/12/6 15/17/6 16/18/6 14/11/6
f 5/18/2 1/11/2 14/11/2 16/18/2
f 3/12/4 7/17/4 15/17/4 13/12/4
f 7/17/1 5/18/1 16/18/1 15/17/1
