# Blender 4.0.1
# www.blender.org
mtllib cookie_box.mtl
o Cube
v -0.183186 -0.050828 0.183186
v -0.163056 0.050828 0.163056
v -0.183186 -0.050828 -0.183186
v -0.163056 0.050828 -0.163056
v 0.183186 -0.050828 0.183186
v 0.163056 0.050828 0.163056
v 0.183186 -0.050828 -0.183186
v 0.163056 0.050828 -0.163056
v -0.183186 0.050828 0.183186
v -0.183186 0.050828 -0.183186
v 0.183186 0.050828 -0.183186
v 0.183186 0.050828 0.183186
v -0.163056 -0.032601 0.163056
v -0.163056 -0.032601 -0.163056
v 0.163056 -0.032601 -0.163056
v 0.163056 -0.032601 0.163056
vn -1.0000 -0.0000 -0.0000
vn -0.0000 -0.0000 -1.0000
vn 1.0000 -0.0000 -0.0000
vn -0.0000 -0.0000 1.0000
vn -0.0000 -1.0000 -0.0000
vn -0.0000 1.0000 -0.0000
vt 0.375000 0.000000
vt 0.625000 0.000000
vt 0.625000 0.250000
vt 0.375000 0.250000
vt 0.625000 0.500000
vt 0.375000 0.500000
vt 0.625000 0.750000
vt 0.375000 0.750000
vt 0.625000 1.000000
vt 0.375000 1.000000
vt 0.125000 0.500000
vt 0.125000 0.750000
vt 0.861264 0.736264
vt 0.638736 0.736264
vt 0.861264 0.513736
vt 0.875000 0.500000
vt 0.875000 0.750000
vt 0.638736 0.513736
s 0
usemtl Material.003
f 2/13/2 6/14/2 16/14/2 13/13/2
f 15/18/6 14/15/6 13/13/6 16/14/6
f 8/18/4 4/15/4 14/15/4 15/18/4
f 6/14/1 8/18/1 15/18/1 16/14/1
f 4/15/3 2/13/3 13/13/3 14/15/3
usemtl Material.004
f 1/1/1 9/2/1 10/3/1 3/4/1
f 3/4/2 10/3/2 11/5/2 7/6/2
f 7/6/3 11/5/3 12/7/3 5/8/3
f 5/8/4 12/7/4 9/9/4 1/10/4
f 3/11/5 7/6/5 5/8/5 1/12/5
f 2/13/6 4/15/6 10/16/6 9/17/6
f 4/15/6 8/18/6 11/5/6 10/16/6
f 8/18/6 6/14/6 12/7/6 11/5/6
f 6/14/6 2/13/6 9/17/6 12/7/6
