# Blender 4.0.1
# www.blender.org
mtllib cookie.mtl
o Cylinder
v 0.000000 -0.005000 -0.040000
v 0.000000 0.005000 -0.027712
v 0.021626 -0.005000 -0.033650
v 0.014982 0.005000 -0.023313
v 0.036385 -0.005000 -0.016617
v 0.025208 0.005000 -0.011512
v 0.039593 -0.005000 0.005693
v 0.027430 0.005000 0.003944
v 0.030230 -0.005000 0.026194
v 0.020943 0.005000 0.018148
v 0.011269 -0.005000 0.038380
v 0.007807 0.005000 0.026590
v -0.011269 -0.005000 0.038380
v -0.007807 0.005000 0.026590
v -0.030230 -0.005000 0.026194
v -0.020943 0.005000 0.018148
v -0.039593 -0.005000 0.005693
v -0.027430 0.005000 0.003944
v -0.036385 -0.005000 -0.016617
v -0.025208 0.005000 -0.011512
v -0.021626 -0.005000 -0.033650
v -0.014982 0.005000 -0.023313
v 0.022578 -0.000528 -0.023713
v 0.016348 0.002829 -0.022530
v 0.016334 0.005148 -0.015741
v 0.026413 -0.000283 -0.017655
v 0.022554 0.003225 -0.012728
v -0.005422 0.008348 0.026254
v 0.022798 0.007059 -0.019561
v 0.022957 0.008254 0.011839
v 0.024422 0.002108 0.016480
v 0.028400 0.001991 0.010510
v 0.017617 0.003358 0.014586
v 0.017387 0.004014 0.007446
v 0.024051 0.003169 0.004927
v -0.001531 0.010420 -0.013645
v 0.000081 0.005884 -0.007458
v 0.004656 0.004786 -0.012875
v -0.006581 0.005723 -0.010115
v -0.006124 0.004526 -0.017174
v 0.000820 0.003947 -0.018880
v -0.021393 0.005646 0.002390
v -0.028002 0.004170 0.004759
v -0.027517 0.002322 0.011675
v -0.016823 0.004710 0.007841
v -0.020608 0.002655 0.013579
v -0.023764 0.008902 0.010047
v -0.002791 0.001960 0.029959
v 0.001123 0.003515 0.024152
v -0.009714 0.002163 0.028087
v -0.010078 0.003844 0.021122
v -0.003380 0.004680 0.018690
v -0.021754 0.000262 -0.024214
v -0.027228 -0.003272 -0.021210
v -0.027667 -0.001253 -0.014340
v -0.018811 0.004465 -0.019200
v -0.022465 0.003529 -0.013098
v -0.027209 0.004749 -0.019219
vn -0.0000 -0.2913 -0.9566
vn -0.0000 0.9222 -0.3867
vn 0.2091 0.9222 -0.3253
vn 0.5172 -0.2913 -0.8048
vn 0.3517 0.9222 -0.1606
vn 0.8702 -0.2913 -0.3974
vn 0.3827 0.9222 0.0550
vn 0.9469 -0.2913 0.1361
vn 0.2922 0.9222 0.2532
vn 0.7230 -0.2913 0.6265
vn 0.1089 0.9222 0.3710
vn 0.2695 -0.2913 0.9179
vn -0.1089 0.9222 0.3710
vn -0.2695 -0.2913 0.9179
vn -0.2922 0.9222 0.2532
vn -0.7230 -0.2913 0.6265
vn -0.3827 0.9222 0.0550
vn -0.9469 -0.2913 0.1361
vn -0.3517 0.9222 -0.1606
vn -0.8702 -0.2913 -0.3974
vn -0.2091 0.9222 -0.3253
vn -0.5172 -0.2913 -0.8048
vn 0.5200 0.8152 -0.2549
vn -0.2778 0.8328 -0.4788
vn -0.7809 0.5967 0.1848
vn -0.2258 0.4175 0.8802
vn 0.6013 0.5715 0.5584
vn 0.8225 0.4830 0.3003
vn 0.0320 0.8712 0.4899
vn -0.4263 0.8558 -0.2932
vn 0.0904 0.4761 -0.8748
vn 0.8103 0.2630 -0.5236
vn 0.6587 0.6521 -0.3754
vn -0.1270 0.7893 -0.6007
vn -0.6473 0.7568 0.0903
vn -0.1176 0.5804 0.8058
vn 0.7145 0.5221 0.4657
vn 0.6216 0.6165 -0.4832
vn -0.1460 0.5895 -0.7945
vn -0.7299 0.6646 -0.1599
vn -0.2629 0.7441 0.6142
vn 0.6019 0.7106 0.3643
vn 0.5486 0.6040 0.5781
vn -0.2634 0.3706 0.8907
vn -0.8296 0.5221 0.1978
vn -0.3465 0.8198 -0.4559
vn 0.4492 0.8638 -0.2282
vn 0.0329 0.9848 0.1708
vn -0.6202 0.5227 0.5849
vn -0.9974 0.0196 -0.0695
vn -0.5674 0.1997 -0.7989
vn 0.0270 0.7582 -0.6515
vt 1.000000 0.500000
vt 1.000000 1.000000
vt 0.909091 1.000000
vt 0.909091 0.500000
vt 0.818182 1.000000
vt 0.818182 0.500000
vt 0.727273 1.000000
vt 0.727273 0.500000
vt 0.636364 1.000000
vt 0.636364 0.500000
vt 0.545454 1.000000
vt 0.545454 0.500000
vt 0.454545 1.000000
vt 0.454545 0.500000
vt 0.363636 1.000000
vt 0.363636 0.500000
vt 0.272727 1.000000
vt 0.272727 0.500000
vt 0.181818 1.000000
vt 0.181818 0.500000
vt 0.379754 0.451901
vt 0.250000 0.490000
vt 0.120246 0.451901
vt 0.031688 0.349700
vt 0.012443 0.215844
vt 0.068620 0.092833
vt 0.182384 0.019722
vt 0.317616 0.019722
vt 0.431380 0.092833
vt 0.487557 0.215844
vt 0.468312 0.349700
vt 0.090909 1.000000
vt 0.090909 0.500000
vt -0.000000 1.000000
vt -0.000000 0.500000
vt 0.750000 0.490000
vt 0.879754 0.451901
vt 0.968312 0.349700
vt 0.987557 0.215844
vt 0.931380 0.092833
vt 0.817616 0.019722
vt 0.682384 0.019722
vt 0.568620 0.092833
vt 0.512443 0.215844
vt 0.531688 0.349700
vt 0.620246 0.451901
vt 0.409092 0.393651
vt 0.500000 0.393651
vt 0.454546 0.472382
vt 0.590909 0.393651
vt 0.681818 0.393651
vt 0.636364 0.472382
vt 0.772727 0.393651
vt 0.863636 0.393651
vt 0.818182 0.472382
vt 0.045455 0.393651
vt 0.136365 0.393651
vt 0.090910 0.472382
vt 0.227273 0.393651
vt 0.318182 0.393651
vt 0.272728 0.472382
s 1
usemtl Material.001
f 1/1/1 2/2/2 4/3/3 3/4/4
f 3/4/4 4/3/3 6/5/5 5/6/6
f 5/6/6 6/5/5 8/7/7 7/8/8
f 7/8/8 8/7/7 10/9/9 9/10/10
f 9/10/10 10/9/9 12/11/11 11/12/12
f 11/12/12 12/11/11 14/13/13 13/14/14
f 13/14/14 14/13/13 16/15/15 15/16/16
f 15/16/16 16/15/15 18/17/17 17/18/18
f 17/18/18 18/17/17 20/19/19 19/20/20
f 4/21/3 2/22/2 22/23/21 20/24/19 18/25/17 16/26/15 14/27/13 12/28/11 10/29/9 8/30/7 6/31/5
f 19/20/20 20/19/19 22/32/21 21/33/22
f 21/33/22 22/32/21 2/34/2 1/35/1
f 1/36/1 3/37/4 5/38/6 7/39/8 9/40/10 11/41/12 13/42/14 15/43/16 17/44/18 19/45/20 21/46/22
s 0
usemtl Material.002
f 49/47/23 52/48/23 28/49/23
f 52/50/24 51/51/24 28/52/24
f 51/53/25 50/54/25 28/55/25
f 50/56/26 48/57/26 28/58/26
f 48/59/27 49/60/27 28/61/27
f 27/59/28 26/60/28 29/61/28
f 25/56/29 27/57/29 29/58/29
f 24/53/30 25/54/30 29/55/30
f 23/50/31 24/51/31 29/52/31
f 26/47/32 23/48/32 29/49/32
f 32/47/33 35/48/33 30/49/33
f 35/50/34 34/51/34 30/52/34
f 34/53/35 33/54/35 30/55/35
f 33/56/36 31/57/36 30/58/36
f 31/59/37 32/60/37 30/61/37
f 38/47/38 41/48/38 36/49/38
f 41/50/39 40/51/39 36/52/39
f 40/53/40 39/54/40 36/55/40
f 39/56/41 37/57/41 36/58/41
f 37/59/42 38/60/42 36/61/42
f 46/59/43 45/60/43 47/61/43
f 44/56/44 46/57/44 47/58/44
f 43/53/45 44/54/45 47/55/45
f 42/50/46 43/51/46 47/52/46
f 45/47/47 42/48/47 47/49/47
f 57/59/48 56/60/48 58/61/48
f 55/56/49 57/57/49 58/58/49
f 54/53/50 55/54/50 58/55/50
f 53/50/51 54/51/51 58/52/51
f 56/47/52 53/48/52 58/49/52
