# Blender 4.0.1
# www.blender.org
mtllib pliers.mtl
o Pliers
v 0.039154 0.000897 -0.002407
v 0.039154 -0.001203 -0.002407
v 0.039154 -0.000152 -0.000083
v 0.039154 -0.000154 -0.000083
v 0.004772 0.002088 -0.016263
v 0.004772 0.000003 -0.016263
v 0.004772 0.002088 -0.004045
v 0.004772 0.000003 -0.004045
v 0.004772 0.002088 -0.005410
v 0.004772 0.000003 -0.005410
v 0.029851 -0.000152 -0.000083
v 0.029851 -0.000154 -0.000083
v 0.029851 0.002088 -0.010978
v 0.029851 -0.002394 -0.010978
v 0.029851 -0.001071 -0.002262
v 0.029851 0.000764 -0.002262
v 0.017362 -0.000154 -0.000083
v 0.017362 0.002088 -0.016263
v 0.017362 -0.001272 -0.002248
v 0.017362 -0.000152 -0.000083
v 0.017362 -0.002394 -0.016263
v 0.017362 0.000966 -0.002248
v -0.008966 0.000003 -0.004045
v -0.008966 0.002088 -0.004045
v -0.008966 0.002088 -0.005410
v -0.008966 0.000003 -0.005410
v -0.005956 0.000003 -0.011698
v -0.005956 0.002088 -0.011698
v -0.011941 0.000003 -0.004045
v -0.011941 0.002088 -0.004045
v -0.011941 0.002088 -0.005410
v -0.011941 0.000003 -0.005410
v -0.011941 0.000003 -0.005520
v -0.011941 0.002088 -0.005520
v 0.001071 0.000003 0.007841
v 0.001071 0.002088 0.007841
v -0.011678 0.000003 0.007318
v -0.011678 0.002088 0.007318
v -0.001388 0.000003 0.011570
v -0.001388 0.002088 0.011570
v -0.009229 0.000003 0.012093
v -0.009229 0.002088 0.012093
v -0.022728 -0.003245 0.010995
v -0.022728 0.004026 0.010995
v -0.020304 -0.003245 0.018146
v -0.020304 0.004026 0.018146
v -0.024378 0.005090 0.011106
v -0.021244 0.005090 0.020350
v -0.024378 -0.004309 0.011106
v -0.021244 -0.004309 0.020350
v -0.046967 0.005090 0.018915
v -0.046149 0.005090 0.028641
v -0.046967 -0.004309 0.018915
v -0.046149 -0.004309 0.028641
v -0.071309 0.005090 0.021051
v -0.072354 0.005090 0.030756
v -0.071309 -0.004309 0.021051
v -0.072354 -0.004309 0.030756
v -0.098489 0.005090 0.018354
v -0.102420 0.005090 0.027289
v -0.098489 -0.004309 0.018354
v -0.102420 -0.004309 0.027289
v -0.115653 0.002898 0.013353
v -0.118708 0.002898 0.017570
v -0.115653 -0.002117 0.013353
v -0.118708 -0.002117 0.017570
vn 0.7113 0.6858 -0.1538
vn 0.6035 0.4367 0.6671
vn 0.6035 -0.4367 0.6671
vn 0.7113 -0.6858 -0.1538
vn -0.3002 -0.0000 0.9539
vn 0.0202 0.9968 0.0772
vn -0.0000 1.0000 -0.0000
vn 0.2174 0.8686 0.4453
vn 0.4069 0.7151 -0.5683
vn 0.4069 -0.7151 -0.5683
vn 0.0188 0.9725 0.2323
vn 0.1647 0.6863 -0.7084
vn -0.1365 0.6743 -0.7258
vn -0.0056 -0.9616 0.2742
vn -0.0034 -0.9165 0.4000
vn 0.0419 0.9525 0.3015
vn -0.2007 -0.6421 -0.7399
vn -0.4227 -0.6651 -0.6156
vn -0.4227 0.6651 -0.6156
vn -0.0034 0.9165 0.4000
vn 0.0075 -0.9056 0.4240
vn -0.0738 -0.9703 0.2305
vn 0.0955 -0.7127 -0.6949
vn -0.0056 0.9616 0.2742
vn -0.0000 -0.0000 1.0000
vn -0.0731 -0.9944 0.0767
vn -0.1383 -0.9442 0.2989
vn 0.0075 0.9056 0.4240
vn -0.0000 -1.0000 -0.0000
vn -0.3681 0.8661 -0.3381
vn 0.6652 0.6769 0.3152
vn -0.7096 0.7045 0.0082
vn -1.0000 -0.0000 -0.0000
vn -0.7186 -0.6316 -0.2910
vn -0.7186 0.6316 -0.2910
vn -0.7071 0.7071 -0.0000
vn 0.6652 -0.6769 0.3152
vn 0.1439 -0.8670 0.4771
vn -0.9997 -0.0000 0.0232
vn 0.3950 0.6194 0.6785
vn 0.2435 0.7429 0.6236
vn 0.2822 -0.7291 0.6235
vn 0.3950 -0.6194 0.6785
vn 0.1466 0.9874 -0.0599
vn 0.5249 -0.8323 -0.1779
vn -0.3158 -0.0000 -0.9488
vn 0.2403 -0.9657 -0.0982
vn 0.4796 -0.0000 0.8775
vn 0.5683 0.6429 0.5135
vn 0.1462 0.6810 0.7175
vn 0.1462 -0.6810 0.7175
vn 0.5683 -0.6429 0.5135
vn -0.0672 -0.0000 -0.9977
vn 0.9199 -0.0000 0.3923
vn 0.5249 0.8323 -0.1779
vn -0.0125 -0.6858 0.7277
vn 0.0039 -0.7287 -0.6848
vn -0.1413 -0.7357 -0.6624
vn 0.0339 0.7027 -0.7107
vn -0.1413 0.7357 -0.6624
vn 0.0339 -0.7027 -0.7107
vn 0.0905 -0.7348 -0.6723
vn 0.0905 0.7348 -0.6723
vn 0.0039 0.7287 -0.6848
vn -0.0125 0.6858 0.7277
vn -0.2701 0.6783 0.6834
vn -0.8306 0.5333 0.1606
vn -0.8306 -0.5333 0.1606
vn -0.2701 -0.6783 0.6834
vn -0.2931 -0.5562 -0.7777
vn -0.2931 0.5562 -0.7777
vt 0.416010 0.315976
vt 0.375000 0.250000
vt 0.625000 0.250000
vt 0.583990 0.315976
vt 0.375000 0.319572
vt 0.375000 0.500000
vt 0.625000 0.500000
vt 0.625000 0.319572
vt 0.375000 0.518291
vt 0.375000 0.970301
vt 0.375000 1.000000
vt 0.625000 1.000000
vt 0.625000 0.970301
vt 0.194572 0.518291
vt 0.194572 0.750000
vt 0.375000 0.750000
vt 0.845301 0.472131
vt 0.845301 0.750000
vt 0.875000 0.750000
vt 0.845301 0.500000
vt 0.875000 0.507484
vt 0.875000 0.500000
vt 0.194572 0.500000
vt 0.625000 0.750000
vt 0.125000 0.500000
vt 0.125000 0.507484
vt 0.154699 0.472131
vt 0.154699 0.500000
vt 0.805428 0.500000
vt 0.805428 0.518291
vt 0.805428 0.750000
vt 0.154699 0.750000
vt 0.375000 0.930428
vt 0.625000 0.930428
vt 0.375000 0.279699
vt 0.625000 0.279699
vt 0.625000 0.518291
s 1
usemtl Material.001
f 48/6/49 52/6/50 54/7/51 50/7/52
f 54/7/51 58/7/56 57/7/57 53/7/58
f 47/6/59 51/6/60 52/6/50 48/6/49
f 50/7/52 54/7/51 53/7/58 49/7/61
f 49/7/61 53/7/58 51/6/60 47/6/59
f 57/7/57 61/7/62 59/6/63 55/6/64
f 53/7/58 57/7/57 55/6/64 51/6/60
f 52/6/50 56/6/65 58/7/56 54/7/51
f 51/6/60 55/6/64 56/6/65 52/6/50
f 60/6/66 64/6/67 66/7/68 62/7/69
f 56/6/65 60/6/66 62/7/69 58/7/56
f 55/6/64 59/6/63 60/6/66 56/6/65
f 58/7/56 62/7/69 61/7/62 57/7/57
f 65/7/70 66/7/68 64/6/67 63/6/71
f 59/6/63 63/6/71 64/6/67 60/6/66
f 62/7/69 66/7/68 65/7/70 61/7/62
f 61/7/62 65/7/70 63/6/71 59/6/63
usemtl Material.002
f 1/1/1 3/2/2 4/3/3 2/4/4
f 9/9/6 25/9/7 24/6/7 7/6/8
f 13/10/9 1/11/1 2/12/4 14/13/10
f 22/14/11 18/15/12 5/16/13 9/9/6
f 15/17/14 14/18/10 2/19/4
f 6/24/17 27/24/18 28/16/19 5/16/13
f 19/30/22 21/31/23 14/18/10 15/17/14
f 1/26/1 13/32/9 16/27/24
f 18/33/12 13/10/9 14/13/10 21/34/23
s 0
f 3/2/25 11/35/25 12/36/25 4/3/25
s 1
f 5/16/13 18/33/12 21/34/23 6/24/17
f 10/37/26 6/24/17 21/31/23 19/30/22
f 16/27/24 13/32/9 18/15/12 22/14/11
s 0
f 11/35/25 20/5/25 17/8/25 12/36/25
f 23/7/29 29/7/29 32/37/29 26/37/29
s 1
f 24/6/7 38/6/30 36/6/31 7/6/8
f 5/16/13 28/16/19 25/9/7 9/9/6
f 10/37/26 26/37/29 27/24/18 6/24/17
f 30/6/32 38/6/30 24/6/7
s 0
f 8/7/29 23/7/29 26/37/29 10/37/29
f 31/9/33 34/16/33 33/24/33 32/37/33
f 30/6/33 31/9/33 32/37/33 29/7/33
s 1
f 27/24/18 33/24/34 34/16/35 28/16/19
f 25/9/7 31/9/36 30/6/32 24/6/7
f 28/16/19 34/16/35 31/9/36 25/9/7
s 0
f 26/37/29 32/37/29 33/24/29 27/24/29
f 35/7/29 39/7/29 41/7/29 37/7/29
s 1
f 7/6/8 36/6/31 35/7/37 8/7/38
s 0
f 23/7/29 37/7/29 29/7/29
f 8/7/29 35/7/29 37/7/29 23/7/29
f 29/7/39 37/7/39 38/6/39 30/6/39
s 1
f 40/6/40 42/6/41 41/7/42 39/7/43
f 36/6/31 40/6/40 39/7/43 35/7/37
s 0
f 38/6/44 44/6/44 46/6/44 42/6/44
s 1
f 38/6/30 42/6/41 40/6/40 36/6/31
s 0
f 45/7/45 50/7/45 49/7/45 43/7/45
f 37/7/46 43/7/46 44/6/46 38/6/46
f 41/7/47 45/7/47 43/7/47 37/7/47
f 42/6/48 46/6/48 45/7/48 41/7/48
f 43/7/53 49/7/53 47/6/53 44/6/53
f 46/6/54 48/6/54 50/7/54 45/7/54
f 44/6/55 47/6/55 48/6/55 46/6/55
usemtl Material.003
f 20/5/5 7/6/5 8/7/5 17/8/5
f 12/20/15 15/17/15 2/21/15 4/22/15
f 20/23/16 22/14/16 9/9/16 7/6/16
f 3/25/20 1/26/20 16/27/20 11/28/20
f 17/29/21 19/30/21 15/17/21 12/20/21
f 8/7/27 10/37/27 19/30/27 17/29/27
f 11/28/28 16/27/28 22/14/28 20/23/28
