# Blender 4.0.1
# www.blender.org
mtllib screwdriver.mtl
o Cylinder
v 0.000000 -0.126484 -0.014684
v 0.000000 0.126484 -0.018998
v 0.008631 -0.126484 -0.011880
v 0.011167 0.126484 -0.015369
v 0.013966 -0.126484 -0.004538
v 0.018068 0.126484 -0.005871
v 0.013966 -0.126484 0.004538
v 0.018068 0.126484 0.005871
v 0.008631 -0.126484 0.011880
v 0.011167 0.126484 0.015369
v 0.000000 -0.126484 0.014684
v 0.000000 0.126484 0.018998
v -0.008631 -0.126484 0.011880
v -0.011167 0.126484 0.015369
v -0.013966 -0.126484 0.004538
v -0.018068 0.126484 0.005871
v -0.013966 -0.126484 -0.004538
v -0.018068 0.126484 -0.005871
v -0.008631 -0.126484 -0.011880
v -0.011167 0.126484 -0.015369
v 0.006689 0.133312 -0.009206
v -0.000000 0.133312 -0.011379
v 0.010822 0.133312 -0.003516
v 0.010822 0.133312 0.003516
v 0.006689 0.133312 0.009206
v -0.000000 0.133312 0.011379
v -0.006689 0.133312 0.009206
v -0.010822 0.133312 0.003516
v -0.010822 0.133312 -0.003516
v -0.006689 0.133312 -0.009206
v 0.000000 0.018028 -0.018998
v 0.011167 0.018028 -0.015369
v 0.018068 0.018028 -0.005871
v 0.018068 0.018028 0.005871
v 0.011167 0.018028 0.015369
v 0.000000 0.018028 0.018998
v -0.011167 0.018028 0.015369
v -0.018068 0.018028 0.005871
v -0.018068 0.018028 -0.005871
v -0.011167 0.018028 -0.015369
v 0.004384 0.006805 -0.006034
v 0.007093 0.006805 -0.002305
v 0.007093 0.006805 0.002305
v 0.004384 0.006805 0.006034
v 0.000000 0.006805 0.007458
v -0.004384 0.006805 0.006034
v -0.007093 0.006805 0.002305
v -0.007093 0.006805 -0.002305
v -0.004384 0.006805 -0.006034
v 0.000000 0.006805 -0.007458
v 0.004157 -0.091371 -0.005721
v 0.006726 -0.091371 -0.002185
v 0.006726 -0.091371 0.002185
v 0.004157 -0.091371 0.005721
v 0.000000 -0.091371 0.007072
v -0.004157 -0.091371 0.005721
v -0.006726 -0.091371 0.002185
v -0.006726 -0.091371 -0.002185
v -0.004157 -0.091371 -0.005721
v 0.000000 -0.091371 -0.007072
v 0.008429 -0.099469 -0.011601
v 0.013638 -0.099469 -0.004431
v 0.013638 -0.099469 0.004431
v 0.008429 -0.099469 0.011601
v 0.000000 -0.099469 0.014340
v -0.008429 -0.099469 0.011601
v -0.013638 -0.099469 0.004431
v -0.013638 -0.099469 -0.004431
v -0.008429 -0.099469 -0.011601
v 0.000000 -0.099469 -0.014340
v 0.008012 -0.126484 -0.005753
v 0.001092 -0.126484 0.009027
v -0.008457 -0.126484 -0.004226
v 0.008012 -0.117167 -0.005753
v 0.001092 -0.117167 0.009027
v -0.008457 -0.117167 -0.004226
v 0.000000 0.033234 -0.018998
v 0.000000 0.111935 -0.018998
v 0.011167 0.111935 -0.015369
v 0.011167 0.033234 -0.015369
v 0.018068 0.111935 -0.005871
v 0.018068 0.033234 -0.005871
v 0.018068 0.111935 0.005871
v 0.018068 0.033234 0.005871
v 0.011167 0.111935 0.015369
v 0.011167 0.033234 0.015369
v 0.000000 0.111935 0.018998
v 0.000000 0.033234 0.018998
v -0.011167 0.111935 0.015369
v -0.011167 0.033234 0.015369
v -0.018068 0.111935 0.005871
v -0.018068 0.033234 0.005871
v -0.018068 0.111935 -0.005871
v -0.018068 0.033234 -0.005871
v -0.011167 0.111935 -0.015369
v -0.011167 0.033234 -0.015369
vn -0.0000 -0.0000 -1.0000
vn -0.0000 0.3806 -0.9247
vn 0.5435 0.3806 -0.7481
vn 0.5878 -0.0000 -0.8090
vn 0.8795 0.3806 -0.2858
vn 0.9511 -0.0000 -0.3090
vn 0.8795 0.3806 0.2858
vn 0.9511 -0.0000 0.3090
vn 0.5435 0.3806 0.7481
vn 0.5878 -0.0000 0.8090
vn -0.0000 0.3806 0.9247
vn -0.0000 -0.0000 1.0000
vn -0.5435 0.3806 0.7481
vn -0.5878 -0.0000 0.8090
vn -0.8795 0.3806 0.2858
vn -0.9511 -0.0000 0.3090
vn -0.8795 0.3806 -0.2858
vn -0.9511 -0.0000 -0.3090
vn 0.2447 0.9093 0.3367
vn -0.0000 0.9093 0.4162
vn -0.5435 0.3806 -0.7481
vn -0.5878 -0.0000 -0.8090
vn -0.0000 -1.0000 -0.0000
vn 0.2447 0.9093 -0.3367
vn -0.0000 0.9093 -0.4162
vn -0.2447 0.9093 -0.3367
vn -0.3959 0.9093 -0.1286
vn -0.3959 0.9093 0.1286
vn -0.2447 0.9093 0.3367
vn 0.3959 0.9093 0.1286
vn 0.3959 0.9093 -0.1286
vn -0.5331 -0.4213 -0.7337
vn -0.5475 -0.3640 -0.7535
vn -0.0000 -0.3640 -0.9314
vn -0.0000 -0.4213 -0.9069
vn -0.8625 -0.4213 -0.2803
vn -0.8858 -0.3640 -0.2878
vn -0.8625 -0.4213 0.2803
vn -0.8858 -0.3640 0.2878
vn -0.5331 -0.4213 0.7337
vn -0.5475 -0.3640 0.7535
vn -0.0000 -0.4213 0.9069
vn -0.0000 -0.3640 0.9314
vn 0.5331 -0.4213 0.7337
vn 0.5475 -0.3640 0.7535
vn 0.8625 -0.4213 0.2803
vn 0.8858 -0.3640 0.2878
vn 0.8625 -0.4213 -0.2803
vn 0.8858 -0.3640 -0.2878
vn 0.5331 -0.4213 -0.7337
vn 0.5475 -0.3640 -0.7535
vn -0.0000 0.3817 -0.9243
vn 0.5433 0.3817 -0.7477
vn 0.8790 0.3817 -0.2856
vn 0.8790 0.3817 0.2856
vn 0.5433 0.3817 0.7477
vn -0.0000 0.3817 0.9243
vn -0.5433 0.3817 0.7477
vn -0.8790 0.3817 0.2856
vn -0.8790 0.3817 -0.2856
vn -0.5433 0.3817 -0.7477
vn -0.5523 0.3420 -0.7602
vn -0.0000 0.3420 -0.9397
vn -0.8937 0.3420 -0.2904
vn -0.8937 0.3420 0.2904
vn -0.5523 0.3420 0.7602
vn -0.0000 0.3420 0.9397
vn 0.5523 0.3420 0.7602
vn 0.8937 0.3420 0.2904
vn 0.8937 0.3420 -0.2904
vn 0.5523 0.3420 -0.7602
vn -0.0000 -0.6389 -0.7693
vn 0.4522 -0.6389 -0.6223
vn 0.7316 -0.6389 -0.2377
vn 0.7316 -0.6389 0.2377
vn 0.4522 -0.6389 0.6223
vn -0.0000 -0.6389 0.7693
vn -0.4522 -0.6389 0.6223
vn -0.7316 -0.6389 0.2377
vn -0.7316 -0.6389 -0.2377
vn -0.4522 -0.6389 -0.6223
vn 0.0923 -0.0000 0.9957
vn 0.8113 -0.0000 -0.5846
vn -0.9057 -0.0000 -0.4240
vt 1.000000 0.971244
vt 1.000000 1.000000
vt 0.900000 1.000000
vt 0.900000 0.971243
vt 0.800000 1.000000
vt 0.800000 0.971244
vt 0.700000 1.000000
vt 0.700000 0.971244
vt 0.600000 1.000000
vt 0.600000 0.971243
vt 0.500000 1.000000
vt 0.500000 0.971244
vt 0.400000 1.000000
vt 0.400000 0.971243
vt 0.300000 1.000000
vt 0.300000 0.971244
vt 0.200000 1.000000
vt 0.200000 0.971244
vt 0.100000 1.000000
vt 0.100000 0.971244
vt -0.000000 1.000000
vt -0.000000 0.971244
vt 0.750000 0.490000
vt 0.891068 0.444164
vt 0.978254 0.324164
vt 0.833934 0.307437
vt 0.642118 0.283405
vt 0.521746 0.324164
vt 0.608932 0.444164
vt 0.391068 0.444164
vt 0.250000 0.490000
vt 0.108932 0.444164
vt 0.021746 0.324164
vt 0.021746 0.175836
vt 0.108932 0.055836
vt 0.250000 0.010000
vt 0.391068 0.055836
vt 0.478254 0.175836
vt 0.478254 0.324164
vt 0.100000 0.774011
vt 0.100000 0.785633
vt -0.000000 0.785633
vt -0.000000 0.774011
vt 0.200000 0.774011
vt 0.200000 0.785633
vt 0.300000 0.774011
vt 0.300000 0.785633
vt 0.400000 0.774011
vt 0.400000 0.785633
vt 0.500000 0.774011
vt 0.500000 0.785633
vt 0.600000 0.774011
vt 0.600000 0.785633
vt 0.700000 0.774011
vt 0.700000 0.785633
vt 0.800000 0.774011
vt 0.800000 0.785633
vt 0.900000 0.774011
vt 0.900000 0.785633
vt 1.000000 0.774011
vt 1.000000 0.785633
vt 1.000000 0.569402
vt 0.900000 0.569402
vt 0.800000 0.569402
vt 0.700000 0.569402
vt 0.600000 0.569402
vt 0.500000 0.569402
vt 0.400000 0.569402
vt 0.300000 0.569402
vt 0.200000 0.569402
vt 0.100000 0.569402
vt -0.000000 0.569402
vt 0.100000 0.527106
vt -0.003974 0.527106
vt 0.200000 0.527106
vt 0.300000 0.527106
vt 0.400000 0.527106
vt 0.500000 0.527106
vt 0.600000 0.527106
vt 0.700000 0.527106
vt 0.800000 0.527106
vt 0.900000 0.527106
vt 1.003974 0.527106
vt 1.000000 0.500000
vt 0.900000 0.500000
vt 0.800000 0.500000
vt 0.700000 0.500000
vt 0.600000 0.500000
vt 0.500000 0.500000
vt 0.400000 0.500000
vt 0.300000 0.500000
vt 0.200000 0.500000
vt 0.100000 0.500000
vt -0.000000 0.500000
vt 0.747347 0.137362
vt 0.978254 0.175836
vt 0.891068 0.055836
vt 0.750000 0.010000
vt 0.608932 0.055836
vt 0.521746 0.175836
vt 0.100000 0.899788
vt -0.000000 0.899788
vt 0.200000 0.899788
vt 0.300000 0.899788
vt 0.400000 0.899788
vt 0.500000 0.899788
vt 0.600000 0.899788
vt 0.700000 0.899788
vt 0.800000 0.899788
vt 0.900000 0.899788
vt 1.000000 0.899788
s 1
usemtl Material
f 78/1/1 2/2/2 4/3/3 79/4/4
f 79/4/4 4/3/3 6/5/5 81/6/6
f 81/6/6 6/5/5 8/7/7 83/8/8
f 83/8/8 8/7/7 10/9/9 85/10/10
f 85/10/10 10/9/9 12/11/11 87/12/12
f 87/12/12 12/11/11 14/13/13 89/14/14
f 89/14/14 14/13/13 16/15/15 91/16/16
f 91/16/16 16/15/15 18/17/17 93/18/18
f 12/11/11 10/9/9 25/9/19 26/11/20
f 93/18/18 18/17/17 20/19/21 95/20/22
f 95/20/22 20/19/21 2/21/2 78/22/1
f 21/30/24 22/31/25 30/32/26 29/33/27 28/34/28 27/35/29 26/36/20 25/37/19 24/38/30 23/39/31
f 10/9/9 8/7/7 24/7/30 25/9/19
f 4/3/3 2/2/2 22/2/25 21/3/24
f 8/7/7 6/5/5 23/5/31 24/7/30
f 6/5/5 4/3/3 21/3/24 23/5/31
f 2/21/2 20/19/21 30/19/26 22/21/25
f 20/19/21 18/17/17 29/17/27 30/19/26
f 18/17/17 16/15/15 28/15/28 29/17/27
f 16/15/15 14/13/13 27/13/29 28/15/28
f 14/13/13 12/11/11 26/11/20 27/13/29
f 49/40/32 40/41/33 31/42/34 50/43/35
f 48/44/36 39/45/37 40/41/33 49/40/32
f 47/46/38 38/47/39 39/45/37 48/44/36
f 46/48/40 37/49/41 38/47/39 47/46/38
f 45/50/42 36/51/43 37/49/41 46/48/40
f 44/52/44 35/53/45 36/51/43 45/50/42
f 43/54/46 34/55/47 35/53/45 44/52/44
f 42/56/48 33/57/49 34/55/47 43/54/46
f 41/58/50 32/59/51 33/57/49 42/56/48
f 50/60/35 31/61/34 32/59/51 41/58/50
f 40/41/33 96/101/22 77/102/1 31/42/34
f 39/45/37 94/103/18 96/101/22 40/41/33
f 94/103/18 93/18/18 95/20/22 96/101/22
f 38/47/39 92/104/16 94/103/18 39/45/37
f 37/49/41 90/105/14 92/104/16 38/47/39
f 90/105/14 89/14/14 91/16/16 92/104/16
f 36/51/43 88/106/12 90/105/14 37/49/41
f 35/53/45 86/107/10 88/106/12 36/51/43
f 86/107/10 85/10/10 87/12/12 88/106/12
f 34/55/47 84/108/8 86/107/10 35/53/45
f 33/57/49 82/109/6 84/108/8 34/55/47
f 82/109/6 81/6/6 83/8/8 84/108/8
f 32/59/51 80/110/4 82/109/6 33/57/49
f 31/61/34 77/111/1 80/110/4 32/59/51
f 77/111/1 78/1/1 79/4/4 80/110/4
s 0
usemtl Metal
f 1/23/23 3/24/23 5/25/23 71/26/23 73/27/23 17/28/23 19/29/23
s 1
f 60/62/52 50/60/35 41/58/50 51/63/53
f 51/63/53 41/58/50 42/56/48 52/64/54
f 52/64/54 42/56/48 43/54/46 53/65/55
f 53/65/55 43/54/46 44/52/44 54/66/56
f 54/66/56 44/52/44 45/50/42 55/67/57
f 55/67/57 45/50/42 46/48/40 56/68/58
f 56/68/58 46/48/40 47/46/38 57/69/59
f 57/69/59 47/46/38 48/44/36 58/70/60
f 58/70/60 48/44/36 49/40/32 59/71/61
f 59/71/61 49/40/32 50/43/35 60/72/52
f 69/73/62 59/71/61 60/72/52 70/74/63
f 68/75/64 58/70/60 59/71/61 69/73/62
f 67/76/65 57/69/59 58/70/60 68/75/64
f 66/77/66 56/68/58 57/69/59 67/76/65
f 65/78/67 55/67/57 56/68/58 66/77/66
f 64/79/68 54/66/56 55/67/57 65/78/67
f 63/80/69 53/65/55 54/66/56 64/79/68
f 62/81/70 52/64/54 53/65/55 63/80/69
f 61/82/71 51/63/53 52/64/54 62/81/70
f 70/83/63 60/62/52 51/63/53 61/82/71
f 1/84/72 70/83/63 61/82/71 3/85/73
f 3/85/73 61/82/71 62/81/70 5/86/74
f 5/86/74 62/81/70 63/80/69 7/87/75
f 7/87/75 63/80/69 64/79/68 9/88/76
f 9/88/76 64/79/68 65/78/67 11/89/77
f 11/89/77 65/78/67 66/77/66 13/90/78
f 13/90/78 66/77/66 67/76/65 15/91/79
f 15/91/79 67/76/65 68/75/64 17/92/80
f 17/92/80 68/75/64 69/73/62 19/93/81
f 19/93/81 69/73/62 70/74/63 1/94/72
s 0
f 17/28/23 73/27/23 72/95/23 71/26/23 5/25/23 7/96/23 9/97/23 11/98/23 13/99/23 15/100/23
f 73/27/82 71/26/82 74/26/82 76/27/82
f 75/95/23 76/27/23 74/26/23
f 72/95/83 73/27/83 76/27/83 75/95/83
f 71/26/84 72/95/84 75/95/84 74/26/84
s 1
usemtl Material.001
f 96/101/22 95/20/22 78/22/1 77/102/1
f 92/104/16 91/16/16 93/18/18 94/103/18
f 88/106/12 87/12/12 89/14/14 90/105/14
f 84/108/8 83/8/8 85/10/10 86/107/10
f 80/110/4 79/4/4 81/6/6 82/109/6
