# Blender 4.0.1
# www.blender.org
mtllib stove_door.mtl
o Cube
v -0.008242 -0.179509 0.214322
v -0.008242 0.179509 0.214322
v -0.008242 -0.179509 -0.214322
v -0.008242 0.179509 -0.214322
v 0.008242 -0.179509 0.214322
v 0.008242 0.179509 0.214322
v 0.008242 -0.179509 -0.214322
v 0.008242 0.179509 -0.214322
v -0.008242 0.150252 0.214322
v -0.008242 0.150252 -0.214322
v 0.008242 0.150252 -0.214322
v 0.008242 0.150252 0.214322
v -0.008242 0.150252 0.010918
v -0.008242 0.150622 0.010818
v -0.008242 0.158114 0.003326
v -0.008242 0.160857 -0.006909
v -0.008242 0.158114 -0.017143
v -0.008242 0.150252 -0.024732
v -0.008242 0.150622 -0.024633
v 0.008242 0.150252 0.010918
v 0.008242 0.158114 0.003326
v 0.008242 0.150622 0.010818
v 0.008242 0.150622 -0.024633
v 0.008242 0.150252 -0.024732
v 0.008242 0.158114 -0.017143
v 0.008242 0.160857 -0.006909
v 0.008242 0.140389 0.013561
v 0.008242 0.122662 0.003326
v 0.008242 0.130154 0.010818
v 0.008242 0.122662 -0.017143
v 0.008242 0.140389 -0.027376
v 0.008242 0.130154 -0.024633
v 0.008242 0.119919 -0.006909
v -0.008242 0.140389 0.013561
v -0.008242 0.122662 0.003326
v -0.008242 0.130154 0.010818
v -0.008242 0.122662 -0.017143
v -0.008242 0.140389 -0.027376
v -0.008242 0.130154 -0.024633
v -0.008242 0.119919 -0.006909
v 0.010867 0.116225 -0.007868
v -0.011158 0.116225 -0.007868
v 0.010867 0.119483 -0.020025
v -0.011158 0.119483 -0.020025
v 0.010867 0.128381 -0.028920
v -0.011158 0.128381 -0.028920
v 0.010867 0.140537 -0.032178
v -0.011158 0.140537 -0.032178
v 0.010867 0.152691 -0.028920
v -0.011158 0.152691 -0.028920
v 0.010867 0.161589 -0.020025
v -0.011158 0.161589 -0.020025
v 0.010867 0.164847 -0.007868
v -0.011158 0.164847 -0.007868
v 0.010867 0.161589 0.004288
v -0.011158 0.161589 0.004288
v 0.010867 0.152691 0.013186
v -0.011158 0.152691 0.013186
v 0.010867 0.140537 0.016444
v -0.011158 0.140537 0.016444
v 0.010867 0.128381 0.013186
v -0.011158 0.128381 0.013186
v 0.010867 0.119483 0.004288
v -0.011158 0.119483 0.004288
v 0.000758 0.123866 -0.008278
v 0.000758 0.127157 0.001847
v 0.000758 0.135768 0.008104
v 0.000758 0.146416 0.008104
v 0.000758 0.155027 0.001847
v 0.000758 0.158319 -0.008278
v 0.000758 0.155027 -0.018404
v 0.000758 0.146416 -0.024660
v 0.000758 0.135768 -0.024660
v 0.000758 0.127157 -0.018404
v 0.000758 0.134343 0.001121
v 0.000758 0.151681 -0.006997
v 0.000758 0.136134 -0.018197
v 0.010867 0.127262 -0.018328
v 0.010867 0.123996 -0.008278
v 0.010867 0.135810 -0.024538
v 0.010867 0.158188 -0.008278
v 0.010867 0.146377 -0.024538
v 0.010867 0.154925 -0.018328
v 0.010867 0.146377 0.007981
v 0.010867 0.135810 0.007981
v 0.010867 0.127262 0.001771
v 0.010867 0.154925 0.001771
v 0.010867 0.134343 0.001121
v 0.010867 0.151681 -0.006997
v 0.010867 0.136134 -0.018197
vn -1.0000 -0.0000 -0.0000
vn -0.0000 -0.0000 -1.0000
vn 1.0000 -0.0000 -0.0000
vn -0.0000 -0.0000 1.0000
vn -0.0000 -1.0000 -0.0000
vn -0.0000 1.0000 -0.0000
vn -0.0000 0.9659 0.2589
vn -0.0000 0.7070 0.7072
vn -0.0000 0.2588 0.9659
vn -0.0000 -0.2589 0.9659
vn -0.0000 -0.7070 0.7072
vn -0.0000 -0.9659 0.2588
vn -0.0000 -0.9659 -0.2588
vn -0.0000 -0.7071 -0.7071
vn -0.0000 -0.2589 -0.9659
vn -0.0000 0.2588 -0.9659
vn -0.0000 0.7071 -0.7071
vn -0.0000 0.9659 -0.2589
vn -0.0000 -0.9659 -0.2589
vn -0.0000 -0.7070 -0.7072
vn -0.0000 -0.2588 -0.9659
vn -0.0000 0.2589 -0.9659
vn -0.0000 0.7070 -0.7072
vn -0.0000 0.9659 -0.2588
vn -0.0000 0.9659 0.2588
vn -0.0000 0.7071 0.7071
vn -0.0000 0.2589 0.9659
vn -0.0000 -0.2588 0.9659
vn -0.0000 -0.7071 0.7071
vn 0.7799 0.6260 -0.0000
vn 0.6389 0.7693 -0.0000
vn 0.6389 0.6223 -0.4522
vn 0.7799 0.5064 -0.3680
vn 0.6389 0.2377 -0.7316
vn 0.7799 0.1934 -0.5953
vn 0.6390 -0.2377 -0.7316
vn 0.7799 -0.1934 -0.5953
vn 0.6390 -0.6223 -0.4521
vn 0.7799 -0.5063 -0.3679
vn 0.6389 -0.7693 -0.0000
vn 0.7798 -0.6260 -0.0000
vn 0.6390 -0.6223 0.4521
vn 0.7799 -0.5063 0.3679
vn 0.6390 -0.2377 0.7316
vn 0.7799 -0.1934 0.5953
vn 0.6389 0.2377 0.7316
vn 0.7799 0.1934 0.5953
vn 0.6389 0.6223 0.4522
vn 0.7799 0.5064 0.3680
vn -0.0000 -0.9957 -0.0923
vn -0.0000 0.5845 -0.8114
vn -0.0000 0.4240 0.9056
vt 0.563469 0.105125
vt 0.575828 0.105125
vt 0.575828 0.306872
vt 0.563469 0.306872
vt 0.563469 0.217639
vt 0.563625 0.217593
vt 0.566790 0.214067
vt 0.567949 0.209250
vt 0.566790 0.204433
vt 0.563625 0.200907
vt 0.563469 0.200860
vt 0.575828 0.508618
vt 0.563469 0.508618
vt 0.575828 0.710365
vt 0.566790 0.611057
vt 0.567949 0.606240
vt 0.563469 0.710365
vt 0.575828 0.912111
vt 0.563469 0.912111
vt 0.272516 0.508618
vt 0.424172 0.508618
vt 0.424172 0.710365
vt 0.272516 0.710365
vt 0.727484 0.508618
vt 0.727484 0.710365
vt 0.424172 0.912111
vt 0.551815 0.601423
vt 0.550656 0.606240
vt 0.424172 0.306872
vt 0.424172 0.105125
vt 0.559303 0.199616
vt 0.554979 0.200907
vt 0.551815 0.204433
vt 0.550656 0.209250
vt 0.551815 0.214067
vt 0.554979 0.217593
vt 0.559303 0.218883
vt 1.000000 0.691023
vt 0.916667 0.691023
vt 0.916667 0.892366
vt 1.000000 0.892366
vt 0.833333 0.691023
vt 0.833333 0.892366
vt 0.750000 0.691023
vt 0.750000 0.892366
vt 0.669678 0.691023
vt 0.666667 0.691023
vt 0.666667 0.892366
vt 0.669678 0.892366
vt 0.583333 0.892366
vt 0.583333 0.691023
vt 0.500000 0.691023
vt 0.500000 0.892366
vt 0.416667 0.691023
vt 0.416667 0.892366
vt 0.330322 0.892366
vt 0.333333 0.892366
vt 0.333333 0.691023
vt 0.330322 0.691023
vt 0.250000 0.691023
vt 0.250000 0.892366
vt 0.166667 0.691023
vt 0.166667 0.892366
vt 0.083333 0.691023
vt 0.000000 0.691023
vt 0.000000 0.892366
vt 0.083333 0.892366
vt 1.000000 0.500000
vt 1.000000 1.000000
vt 0.916667 1.000000
vt 0.916667 0.500000
vt 0.833333 1.000000
vt 0.833333 0.500000
vt 0.750000 1.000000
vt 0.750000 0.500000
vt 0.666667 1.000000
vt 0.666667 0.500000
vt 0.583333 1.000000
vt 0.583333 0.500000
vt 0.500000 1.000000
vt 0.500000 0.500000
vt 0.416667 1.000000
vt 0.416667 0.500000
vt 0.333333 1.000000
vt 0.333333 0.500000
vt 0.250000 1.000000
vt 0.250000 0.500000
vt 0.166667 1.000000
vt 0.166667 0.500000
vt 0.457846 0.130000
vt 0.490000 0.250000
vt 0.457846 0.370000
vt 0.370000 0.457846
vt 0.250000 0.490000
vt 0.130000 0.457846
vt 0.042154 0.370000
vt 0.010000 0.250000
vt 0.042154 0.130000
vt 0.130000 0.042154
vt 0.250000 0.010000
vt 0.370000 0.042154
vt 0.083333 1.000000
vt 0.083333 0.500000
vt 0.000000 1.000000
vt 0.000000 0.500000
vt 0.630000 0.042154
vt 0.685980 0.097844
vt 0.785188 0.085847
vt 0.870000 0.457846
vt 0.822112 0.391178
vt 0.722903 0.403175
vt 0.735388 0.152812
vt 0.675565 0.309813
vt 0.843692 0.281944
vt 0.968096 0.508648
vt 0.900000 0.500000
vt 0.900000 0.508648
vt 0.868096 0.508648
vt 0.800000 0.500000
vt 0.800000 0.508648
vt 0.768095 0.508648
vt 0.700000 0.500000
vt 0.700000 0.508648
vt 0.668095 0.508648
vt 0.600000 0.500000
vt 0.600000 0.508648
vt 0.500000 0.508648
vt 0.568095 0.508648
vt 0.400000 0.500000
vt 0.400000 0.508648
vt 0.468095 0.508648
vt 0.300000 0.500000
vt 0.300000 0.508648
vt 0.368095 0.508648
vt 0.200000 0.500000
vt 0.200000 0.508648
vt 0.268095 0.508648
vt 0.100000 0.500000
vt 0.100000 0.508648
vt 0.168095 0.508648
vt -0.001268 0.508648
vt 0.066827 0.508648
vt 0.853254 0.107963
vt 0.870000 0.042154
vt 0.750000 0.010000
vt 0.612771 0.165863
vt 0.654838 0.107963
vt 0.542154 0.130000
vt 0.510000 0.250000
vt 0.542154 0.370000
vt 0.593524 0.263923
vt 0.630000 0.457846
vt 0.635591 0.354568
vt 0.750000 0.490000
vt 0.957846 0.370000
vt 0.990000 0.250000
vt 0.895321 0.323159
vt 0.957846 0.130000
vt 0.914568 0.225099
vt 0.872501 0.134454
vt 0.747347 0.137362
vt 0.642118 0.283405
vt 0.833934 0.307437
vt 0.819549 0.305635
vt 0.650010 0.272453
vt 0.753841 0.150117
vt 0.563625 0.597898
vt 0.563469 0.597851
vt 0.563469 0.614630
vt 0.563625 0.614583
vt 0.566790 0.601423
vt 0.559303 0.615874
vt 0.551815 0.611057
vt 0.559303 0.596607
vt 0.554979 0.597898
vt 0.554980 0.614583
s 0
usemtl Material.004
f 6/14/3 21/15/3 26/16/3
f 7/21/3 30/27/3 33/28/3
f 33/38/7 30/39/7 37/40/7 40/41/7
f 30/39/8 32/42/8 39/43/8 37/40/8
f 32/42/9 31/44/9 38/45/9 39/43/9
f 24/46/10 23/47/10 19/48/10 18/49/10 38/45/10 31/44/10
f 17/50/11 19/48/11 23/47/11 25/51/11
f 17/50/12 25/51/12 26/52/12 16/53/12
f 16/53/13 26/52/13 21/54/13 15/55/13
f 15/55/14 21/54/14 22/54/14 14/55/14
f 13/56/15 14/57/15 22/58/15 20/59/15 27/60/15 34/61/15
f 34/61/16 27/60/16 29/62/16 36/63/16
f 29/62/17 28/62/17 35/63/17 36/63/17
f 28/64/18 33/65/18 40/66/18 35/67/18
f 23/167/3 24/168/3 8/12/3
f 24/168/3 11/13/3 8/12/3
f 8/12/3 6/14/3 26/16/3
f 6/14/3 12/17/3 20/169/3
f 6/14/3 20/169/3 22/170/3
f 25/171/3 23/167/3 8/12/3
f 26/16/3 25/171/3 8/12/3
f 6/14/3 22/170/3 21/15/3
f 27/172/3 20/169/3 12/17/3
f 12/17/3 5/22/3 28/173/3
f 5/22/3 7/21/3 33/28/3
f 28/173/3 5/22/3 33/28/3
f 7/21/3 11/13/3 30/27/3
f 11/13/3 24/168/3 31/174/3
f 11/13/3 31/174/3 32/175/3
f 29/176/3 27/172/3 12/17/3
f 28/173/3 29/176/3 12/17/3
f 11/13/3 32/175/3 30/27/3
usemtl Material.005
f 9/1/1 2/2/1 4/3/1 10/4/1 18/5/1 19/6/1 17/7/1 16/8/1 15/9/1 14/10/1 13/11/1
f 10/4/2 4/3/2 8/12/2 11/13/2
f 12/17/4 6/14/4 2/18/4 9/19/4
f 3/20/5 7/21/5 5/22/5 1/23/5
f 8/12/6 4/24/6 2/25/6 6/14/6
f 5/22/4 12/17/4 9/19/4 1/26/4
f 3/29/2 10/4/2 11/13/2 7/21/2
f 18/5/1 10/4/1 3/29/1 1/30/1 9/1/1 13/11/1 34/31/1 36/32/1 35/33/1 40/34/1 37/35/1 39/36/1 38/37/1
usemtl Material.006
f 41/68/19 42/69/19 44/70/19 43/71/19
f 43/71/20 44/70/20 46/72/20 45/73/20
f 45/73/21 46/72/21 48/74/21 47/75/21
f 47/75/22 48/74/22 50/76/22 49/77/22
f 49/77/23 50/76/23 52/78/23 51/79/23
f 51/79/24 52/78/24 54/80/24 53/81/24
f 53/81/25 54/80/25 56/82/25 55/83/25
f 55/83/26 56/82/26 58/84/26 57/85/26
f 57/85/27 58/84/27 60/86/27 59/87/27
f 59/87/28 60/86/28 62/88/28 61/89/28
f 50/90/1 48/91/1 46/92/1 44/93/1 42/94/1 64/95/1 62/96/1 60/97/1 58/98/1 56/99/1 54/100/1 52/101/1
f 61/89/29 62/88/29 64/102/29 63/103/29
f 63/103/12 64/102/12 42/104/12 41/105/12
f 55/106/3 87/107/3 81/108/3
f 43/109/3 78/110/3 79/111/3
f 89/112/3 88/113/3 90/114/3
s 1
f 79/115/30 65/68/31 66/116/32 86/117/33
f 86/118/33 66/116/32 67/119/34 85/120/35
f 85/121/35 67/119/34 68/122/36 84/123/37
f 84/124/37 68/122/36 69/125/38 87/126/39
f 69/125/38 70/81/40 81/127/41 87/128/39
f 70/81/40 71/129/42 83/130/43 81/131/41
f 71/129/42 72/132/44 82/133/45 83/134/43
f 72/132/44 73/135/46 80/136/47 82/137/45
f 73/135/46 74/138/48 78/139/49 80/140/47
f 65/105/31 79/141/30 78/142/49 74/138/48
s 0
f 81/108/3 83/143/3 51/144/3
f 51/144/3 53/145/3 81/108/3
f 53/145/3 55/106/3 81/108/3
f 84/146/3 87/147/3 57/148/3
f 87/147/3 55/106/3 57/148/3
f 57/148/3 59/149/3 84/146/3
f 59/149/3 61/150/3 85/151/3
f 61/150/3 63/152/3 86/153/3
f 85/151/3 61/150/3 86/153/3
f 63/152/3 41/154/3 79/111/3
f 41/154/3 43/109/3 79/111/3
f 43/109/3 45/155/3 78/110/3
f 45/155/3 47/156/3 80/157/3
f 78/110/3 45/155/3 80/157/3
f 47/156/3 49/158/3 82/159/3
f 49/158/3 51/144/3 83/160/3
f 82/159/3 49/158/3 83/160/3
f 85/151/3 84/146/3 59/149/3
f 47/156/3 82/159/3 80/157/3
f 79/111/3 86/153/3 63/152/3
usemtl Material.007
f 76/161/3 69/125/3 68/122/3
f 76/161/3 77/162/3 72/132/3
f 75/163/3 66/116/3 65/68/3
f 75/163/3 65/68/3 77/162/3
f 77/162/3 65/105/3 74/138/3
f 77/162/3 74/138/3 73/135/3
f 77/162/3 73/135/3 72/132/3
f 76/161/3 72/132/3 71/129/3
f 76/161/3 71/129/3 70/81/3
f 76/161/3 70/81/3 69/125/3
f 76/161/3 68/122/3 75/163/3
f 75/163/3 68/122/3 67/119/3
f 75/163/3 67/119/3 66/116/3
f 88/163/50 75/163/50 77/162/50
f 90/162/50 88/164/50 77/162/50
f 90/162/51 77/162/51 76/161/51
f 90/165/51 76/161/51 89/161/51
f 89/161/52 76/161/52 75/163/52
f 88/163/52 89/166/52 75/163/52
