# Blender 4.0.1
# www.blender.org
mtllib tap.mtl
o Cylinder.001
v -0.001097 0.150465 0.059433
v -0.001097 0.132428 0.063021
v -0.011039 0.011496 -0.014911
v -0.011039 0.016512 -0.014911
v -0.000149 0.020200 0.003791
v -0.000149 -0.001968 0.003791
v -0.002829 0.020200 0.002681
v -0.002829 -0.001968 0.002681
v -0.003939 0.020200 0.000001
v -0.003939 -0.001968 0.000001
v -0.002829 0.020200 -0.002679
v -0.002829 -0.001968 -0.002679
v -0.000149 0.020200 -0.003789
v -0.000149 -0.001968 -0.003789
v 0.002531 0.020200 -0.002679
v 0.002531 -0.001968 -0.002679
v 0.003641 0.020200 0.000001
v 0.003641 -0.001968 0.000001
v 0.002531 0.020200 0.002681
v 0.002531 -0.001968 0.002681
v 0.009897 0.016512 0.016330
v 0.009897 0.011496 0.016330
v -0.008653 0.016512 -0.016510
v -0.008653 0.011496 -0.016510
v 0.012284 0.016512 0.014731
v 0.012284 0.011496 0.014731
v -0.014198 0.011496 0.011572
v -0.014198 0.016512 0.011572
v 0.017043 0.016512 -0.009365
v 0.017043 0.011496 -0.009365
v -0.015798 0.016512 0.009185
v -0.015798 0.011496 0.009185
v 0.015443 0.016512 -0.011752
v 0.015443 0.011496 -0.011752
vn -0.0000 -1.0000 -0.0000
vn -0.0000 0.6303 0.7764
vn -0.5490 0.6303 0.5490
vn -0.7071 -0.0000 0.7071
vn -0.0000 -0.0000 1.0000
vn -0.7764 0.6303 -0.0000
vn -1.0000 -0.0000 -0.0000
vn 0.5567 -0.0000 0.8307
vn -0.0000 1.0000 -0.0000
vn -0.5490 0.6303 -0.5490
vn -0.7071 -0.0000 -0.7071
vn 0.8307 -0.0000 -0.5567
vn -0.5567 -0.0000 -0.8307
vn -0.0000 0.6303 -0.7764
vn -0.0000 -0.0000 -1.0000
vn 0.5490 0.6303 -0.5490
vn 0.7071 -0.0000 -0.7071
vn -0.8307 -0.0000 0.5567
vn 0.7764 0.6303 -0.0000
vn 1.0000 -0.0000 -0.0000
vn 0.5490 0.6303 0.5490
vn 0.7071 -0.0000 0.7071
vt 0.375000 0.000000
vt 0.625000 0.000000
vt 0.625000 0.250000
vt 0.375000 0.250000
vt 1.000000 0.500000
vt 0.875000 0.500000
vt 0.875000 1.000000
vt 1.000000 1.000000
vt 0.750000 0.500000
vt 0.750000 1.000000
vt 0.625000 0.500000
vt 0.875000 0.750000
vt 0.625000 0.750000
vt 0.375000 0.500000
vt 0.625000 1.000000
vt 0.125000 0.500000
vt 0.375000 0.750000
vt 0.125000 0.750000
vt 0.500000 0.500000
vt 0.500000 1.000000
vt 0.375000 1.000000
vt 0.250000 0.500000
vt 0.250000 1.000000
vt 0.125000 1.000000
vt 0.000000 0.500000
vt 0.000000 1.000000
vt 0.750000 0.490000
vt 0.580294 0.419706
vt 0.510000 0.250000
vt 0.580294 0.080294
vt 0.750000 0.010000
vt 0.919706 0.080294
vt 0.990000 0.250000
vt 0.919706 0.419706
s 0
usemtl Material
f 34/1/1 30/2/1 27/3/1 32/4/1
s 1
f 5/5/2 7/6/3 8/7/4 6/8/5
s 0
f 26/1/1 22/2/1 3/3/1 24/4/1
s 1
f 7/6/3 9/9/6 10/10/7 8/7/4
s 0
f 28/11/8 27/6/8 30/12/8 29/13/8
f 21/4/9 25/3/9 23/11/9 4/14/9
s 1
f 9/9/6 11/11/10 12/15/11 10/10/7
s 0
f 29/16/12 30/14/12 34/17/12 33/18/12
f 23/14/13 24/11/13 3/13/13 4/17/13
s 1
f 11/11/10 13/19/14 14/20/15 12/15/11
s 0
f 33/17/13 34/13/13 32/15/13 31/21/13
f 25/17/12 26/13/12 24/15/12 23/21/12
s 1
f 13/19/14 15/14/16 16/21/17 14/20/15
s 0
f 31/14/18 32/11/18 27/13/18 28/17/18
f 21/16/8 22/14/8 26/17/8 25/18/8
s 1
f 15/14/16 17/22/19 18/23/20 16/21/17
s 0
f 4/11/18 3/6/18 22/12/18 21/13/18
s 1
f 17/22/19 19/16/21 20/24/22 18/23/20
s 0
f 29/4/9 33/3/9 31/11/9 28/14/9
s 1
f 19/16/21 5/25/2 6/26/5 20/24/22
s 0
f 5/27/9 19/28/9 17/29/9 15/30/9 13/31/9 11/32/9 9/33/9 7/34/9
l 2 1
