# Blender 4.0.1
# www.blender.org
mtllib wire_cut.mtl
o CutWire2
v 0.010822 -0.014345 0.012905
v 0.008196 -0.014144 0.015937
v 0.006288 -0.013715 0.012676
v 0.009491 -0.013796 0.009593
v 0.019928 -0.003864 0.008601
v 0.013460 -0.005519 0.012706
v 0.011587 -0.005699 0.009454
v 0.018235 -0.003991 0.005319
v 0.024765 0.006085 0.003985
v 0.019703 0.004113 0.008480
v 0.018019 0.003518 0.004772
v 0.023295 0.005842 0.000457
v 0.023720 0.019755 0.002558
v 0.020119 0.016024 0.005451
v 0.018356 0.015568 0.002120
v 0.021837 0.019192 -0.000660
v 0.019776 0.030100 0.002186
v 0.017294 0.027084 0.005102
v 0.015412 0.025498 0.001813
v 0.017978 0.028456 -0.001198
v 0.016957 0.036462 0.000610
v 0.012707 0.034993 0.003501
v 0.011417 0.032943 -0.000223
v 0.015809 0.034354 -0.003198
v 0.011271 0.041206 0.000454
v 0.007629 0.040365 0.002494
v 0.006406 0.037792 -0.001027
v 0.010159 0.038675 -0.003033
v 0.006656 0.046916 -0.000696
v 0.002750 0.046354 0.000593
v 0.001510 0.043754 -0.002697
v 0.005370 0.044295 -0.003955
v 0.004703 0.053386 -0.003697
v 0.001041 0.052124 -0.002189
v 0.000279 0.049539 -0.005246
v 0.003789 0.050532 -0.006693
v -0.019294 0.055027 -0.004544
v -0.017085 0.053319 -0.002322
v -0.017083 0.050821 -0.004945
v -0.019180 0.052483 -0.007217
v -0.024701 0.048984 -0.001490
v -0.022251 0.047834 0.000474
v -0.022032 0.046005 -0.002482
v -0.024405 0.047117 -0.004489
v -0.029126 0.044325 -0.001523
v -0.027786 0.042376 0.001241
v -0.026587 0.040565 -0.001674
v -0.027869 0.042432 -0.004430
v -0.034622 0.036923 -0.001009
v -0.032747 0.035151 0.001832
v -0.030946 0.033503 -0.001138
v -0.032809 0.035253 -0.003970
v -0.038180 0.027438 -0.000538
v -0.035984 0.026162 0.002301
v -0.033846 0.024977 -0.000659
v -0.036026 0.026228 -0.003494
v -0.027419 -0.051886 0.007518
v -0.028540 -0.050854 0.010993
v -0.031085 -0.049110 0.007439
v -0.028504 -0.050006 0.004340
v -0.028258 -0.045981 0.008754
v -0.027362 -0.044410 0.012812
v -0.027172 -0.042037 0.009738
v -0.027329 -0.043659 0.006559
v -0.013629 -0.039403 0.013927
v -0.016594 -0.038167 0.015848
v -0.016220 -0.036994 0.013251
v -0.011731 -0.038331 0.011954
v -0.003529 -0.033465 0.015128
v -0.008719 -0.033023 0.018799
v -0.009229 -0.032002 0.015505
v -0.002960 -0.032224 0.011542
v 0.003024 -0.023305 0.014434
v -0.000918 -0.023832 0.017615
v -0.001897 -0.022629 0.014184
v 0.002941 -0.022058 0.010859
vn 0.7867 -0.5540 0.2723
vn 0.8554 -0.4180 0.3058
vn -0.0709 0.3954 0.9158
vn 0.0190 0.1966 0.9803
vn -0.8425 0.4657 -0.2708
vn -0.7841 0.5991 -0.1621
vn 0.1564 -0.5145 -0.8431
vn 0.0565 -0.3800 -0.9233
vn 0.9731 -0.1324 0.1887
vn -0.0819 0.3313 0.9400
vn -0.9131 0.1613 -0.3744
vn 0.3202 -0.2856 -0.9033
vn 0.9542 0.2359 0.1838
vn -0.1744 0.1076 0.9788
vn -0.9471 -0.1526 -0.2823
vn 0.2853 -0.0065 -0.9584
vn 0.8811 0.4008 0.2509
vn -0.1577 0.0300 0.9870
vn -0.9074 -0.3875 -0.1629
vn 0.2697 -0.0781 -0.9598
vn 0.7736 0.6203 0.1298
vn -0.1940 0.0394 0.9802
vn -0.7587 -0.6131 -0.2204
vn 0.3148 0.0458 -0.9481
vn 0.6635 0.7189 0.2074
vn -0.2590 -0.0111 0.9658
vn -0.7226 -0.6698 -0.1709
vn 0.1509 0.0412 -0.9877
vn 0.7657 0.5410 0.3478
vn -0.4620 0.1222 0.8784
vn -0.8310 -0.5110 -0.2198
vn 0.2998 -0.1374 -0.9440
vn 0.4331 0.9005 -0.0391
vn -0.5980 0.6908 0.4065
vn -0.8502 0.0592 -0.5232
vn 0.2110 0.2491 -0.9452
vn -0.0435 0.9928 -0.1116
vn -0.6810 0.6949 0.2310
vn 0.2759 0.0410 0.9603
vn 0.7214 0.4457 0.5300
vn 0.7087 -0.6961 -0.1151
vn 0.8818 -0.3433 -0.3232
vn -0.2686 0.0045 -0.9632
vn 0.0814 0.2446 -0.9662
vn -0.7638 0.6418 0.0687
vn 0.0774 0.0367 0.9963
vn 0.8036 -0.5916 -0.0649
vn -0.0797 0.0195 -0.9966
vn -0.8751 0.4832 0.0265
vn -0.0009 0.0621 0.9981
vn 0.9028 -0.4292 -0.0272
vn -0.0983 -0.0085 -0.9951
vn -0.9372 0.3460 0.0446
vn 0.1281 0.0161 0.9916
vn 0.9440 -0.3300 0.0018
vn 0.0459 -0.0592 -0.9972
vn 0.3858 -0.9146 -0.1210
vn 0.9337 -0.3582 0.0004
vn -0.3540 -0.1421 0.9244
vn 0.3923 -0.1004 0.9143
vn -0.6246 0.7745 -0.1005
vn -0.9240 0.3772 -0.0618
vn -0.0093 0.1594 -0.9872
vn 0.4635 0.2750 -0.8423
vn 0.4208 -0.8875 0.1876
vn -0.2953 -0.0525 0.9540
vn -0.4359 0.8784 -0.1960
vn 0.3203 -0.3124 -0.8943
vn 0.6530 -0.6747 0.3439
vn -0.1945 0.0056 0.9809
vn -0.6513 0.7215 -0.2351
vn 0.3405 -0.3534 -0.8713
vn 0.7825 -0.5561 0.2802
vn -0.0831 0.2334 0.9688
vn -0.7641 0.6015 -0.2332
vn 0.1588 -0.2152 -0.9636
vt 0.500000 0.500000
vt 0.531250 0.500000
vt 0.531250 0.750000
vt 0.500000 0.750000
vt 0.531250 1.000000
vt 0.500000 1.000000
vt 0.500000 0.000000
vt 0.531250 0.000000
vt 0.531250 0.250000
vt 0.500000 0.250000
vt 0.562500 0.500000
vt 0.562500 0.750000
vt 0.562500 1.000000
vt 0.562500 0.000000
vt 0.562500 0.250000
vt 0.593750 0.500000
vt 0.593750 0.750000
vt 0.593750 1.000000
vt 0.593750 0.000000
vt 0.593750 0.250000
vt 0.625000 0.500000
vt 0.625000 0.750000
vt 0.625000 1.000000
vt 0.625000 0.000000
vt 0.625000 0.250000
vt 0.656250 0.500000
vt 0.656250 0.750000
vt 0.656250 1.000000
vt 0.656250 0.000000
vt 0.656250 0.250000
vt 0.687500 0.500000
vt 0.687500 0.750000
vt 0.687500 1.000000
vt 0.687500 0.000000
vt 0.687500 0.250000
vt 0.718750 0.500000
vt 0.718750 0.750000
vt 0.718750 1.000000
vt 0.718750 0.000000
vt 0.718750 0.250000
vt 0.750000 0.500000
vt 0.750000 0.750000
vt 0.750000 1.000000
vt 0.750000 0.000000
vt 0.750000 0.250000
vt 0.781250 0.500000
vt 0.812500 0.500000
vt 0.812500 0.750000
vt 0.781250 0.750000
vt 0.812500 1.000000
vt 0.781250 1.000000
vt 0.781250 0.000000
vt 0.812500 0.000000
vt 0.812500 0.250000
vt 0.781250 0.250000
vt 0.843750 0.500000
vt 0.843750 0.750000
vt 0.843750 1.000000
vt 0.843750 0.000000
vt 0.843750 0.250000
vt 0.875000 0.500000
vt 0.875000 0.750000
vt 0.875000 1.000000
vt 0.875000 0.000000
vt 0.875000 0.250000
vt 0.906250 0.500000
vt 0.906250 0.750000
vt 0.906250 1.000000
vt 0.906250 0.000000
vt 0.906250 0.250000
vt 0.343750 0.500000
vt 0.375000 0.500000
vt 0.375000 0.750000
vt 0.343750 0.750000
vt 0.375000 1.000000
vt 0.343750 1.000000
vt 0.343750 0.000000
vt 0.375000 0.000000
vt 0.375000 0.250000
vt 0.343750 0.250000
vt 0.406250 0.500000
vt 0.406250 0.750000
vt 0.406250 1.000000
vt 0.406250 0.000000
vt 0.406250 0.250000
vt 0.437500 0.500000
vt 0.437500 0.750000
vt 0.437500 1.000000
vt 0.437500 0.000000
vt 0.437500 0.250000
vt 0.468750 0.500000
vt 0.468750 0.750000
vt 0.468750 1.000000
vt 0.468750 0.000000
vt 0.468750 0.250000
s 1
f 1/1/1 5/2/2 6/3/3 2/4/4
f 2/4/4 6/3/3 7/5/5 3/6/6
f 3/7/6 7/8/5 8/9/7 4/10/8
f 4/10/8 8/9/7 5/2/2 1/1/1
f 5/2/2 9/11/9 10/12/10 6/3/3
f 6/3/3 10/12/10 11/13/11 7/5/5
f 7/8/5 11/14/11 12/15/12 8/9/7
f 8/9/7 12/15/12 9/11/9 5/2/2
f 9/11/9 13/16/13 14/17/14 10/12/10
f 10/12/10 14/17/14 15/18/15 11/13/11
f 11/14/11 15/19/15 16/20/16 12/15/12
f 12/15/12 16/20/16 13/16/13 9/11/9
f 13/16/13 17/21/17 18/22/18 14/17/14
f 14/17/14 18/22/18 19/23/19 15/18/15
f 15/19/15 19/24/19 20/25/20 16/20/16
f 16/20/16 20/25/20 17/21/17 13/16/13
f 17/21/17 21/26/21 22/27/22 18/22/18
f 18/22/18 22/27/22 23/28/23 19/23/19
f 19/24/19 23/29/23 24/30/24 20/25/20
f 20/25/20 24/30/24 21/26/21 17/21/17
f 21/26/21 25/31/25 26/32/26 22/27/22
f 22/27/22 26/32/26 27/33/27 23/28/23
f 23/29/23 27/34/27 28/35/28 24/30/24
f 24/30/24 28/35/28 25/31/25 21/26/21
f 25/31/25 29/36/29 30/37/30 26/32/26
f 26/32/26 30/37/30 31/38/31 27/33/27
f 27/34/27 31/39/31 32/40/32 28/35/28
f 28/35/28 32/40/32 29/36/29 25/31/25
f 29/36/29 33/41/33 34/42/34 30/37/30
f 30/37/30 34/42/34 35/43/35 31/38/31
f 31/39/31 35/44/35 36/45/36 32/40/32
f 32/40/32 36/45/36 33/41/33 29/36/29
f 33/41/33 36/45/36 35/44/35 34/42/34
f 37/46/37 41/47/38 42/48/39 38/49/40
f 38/49/40 42/48/39 43/50/41 39/51/42
f 39/52/42 43/53/41 44/54/43 40/55/44
f 40/55/44 44/54/43 41/47/38 37/46/37
f 41/47/38 45/56/45 46/57/46 42/48/39
f 42/48/39 46/57/46 47/58/47 43/50/41
f 43/53/41 47/59/47 48/60/48 44/54/43
f 44/54/43 48/60/48 45/56/45 41/47/38
f 45/56/45 49/61/49 50/62/50 46/57/46
f 46/57/46 50/62/50 51/63/51 47/58/47
f 47/59/47 51/64/51 52/65/52 48/60/48
f 48/60/48 52/65/52 49/61/49 45/56/45
f 49/61/49 53/66/53 54/67/54 50/62/50
f 50/62/50 54/67/54 55/68/55 51/63/51
f 51/64/51 55/69/55 56/70/56 52/65/52
f 52/65/52 56/70/56 53/66/53 49/61/49
f 57/71/57 61/72/58 62/73/59 58/74/60
f 58/74/60 62/73/59 63/75/61 59/76/62
f 59/77/62 63/78/61 64/79/63 60/80/64
f 60/80/64 64/79/63 61/72/58 57/71/57
f 61/72/58 65/81/65 66/82/66 62/73/59
f 62/73/59 66/82/66 67/83/67 63/75/61
f 63/78/61 67/84/67 68/85/68 64/79/63
f 64/79/63 68/85/68 65/81/65 61/72/58
f 65/81/65 69/86/69 70/87/70 66/82/66
f 66/82/66 70/87/70 71/88/71 67/83/67
f 67/84/67 71/89/71 72/90/72 68/85/68
f 68/85/68 72/90/72 69/86/69 65/81/65
f 69/86/69 73/91/73 74/92/74 70/87/70
f 70/87/70 74/92/74 75/93/75 71/88/71
f 71/89/71 75/94/75 76/95/76 72/90/72
f 72/90/72 76/95/76 73/91/73 69/86/69
f 73/91/73 1/1/1 2/4/4 74/92/74
f 74/92/74 2/4/4 3/6/6 75/93/75
f 75/94/75 3/7/6 4/10/8 76/95/76
f 76/95/76 4/10/8 1/1/1 73/91/73
f 58/74/60 60/80/64 57/71/57
f 37/46/37 38/49/40 39/52/42 40/55/44
